<?xml version="1.0" encoding="utf-8"?>
<!-- Generator: Adobe Illustrator 27.5.0, SVG Export Plug-In . SVG Version: 6.00 Build 0)  -->
<svg version="1.1" xmlns="http://www.w3.org/2000/svg" xmlns:xlink="http://www.w3.org/1999/xlink" x="0px" y="0px"
	 viewBox="0 0 500 500" style="enable-background:new 0 0 500 500;" xml:space="preserve">
<g id="Background_Complete">
	<g>
		<g>
			<g>
				<g>
					<path style="fill:#F5F5F5;" d="M448.068,211.947c0.325-2.363-3.01-4.307-5.516-4.509c-1.195-0.096-2.436,0.086-3.569-0.308
						c-2.453-0.855-3.433-4.024-5.826-5.034c-1.789-0.755-3.85-0.083-5.584,0.79c-1.735,0.873-3.449,1.972-5.387,2.096
						c-1.686,0.108-3.517-0.517-4.992,0.306c-1.099,0.614-1.675,1.88-2.688,2.627c-0.991,0.731-2.284,0.886-3.513,0.953
						c-1.23,0.067-2.503,0.079-3.623,0.592c-1.12,0.513-2.046,1.697-1.814,2.906L448.068,211.947z"/>
				</g>
			</g>
		</g>
	</g>
	<g>
		<g>
			<g>
				<g>
					<path style="fill:#F5F5F5;" d="M439.161,98.747c0.375-2.722-3.467-4.961-6.353-5.194c-1.377-0.111-2.806,0.099-4.111-0.355
						c-2.826-0.985-3.954-4.635-6.711-5.798c-2.061-0.869-4.434-0.095-6.432,0.91s-3.973,2.271-6.205,2.414
						c-1.942,0.124-4.051-0.596-5.75,0.353c-1.266,0.707-1.929,2.166-3.096,3.026c-1.142,0.842-2.631,1.02-4.047,1.097
						c-1.416,0.077-2.883,0.091-4.173,0.682s-2.357,1.954-2.089,3.347L439.161,98.747z"/>
				</g>
			</g>
		</g>
	</g>
	<g>
		<g>
			<g>
				<g>
					<path style="fill:#EBEBEB;" d="M322.731,210.286c0.579-4.204-5.354-7.662-9.812-8.021c-2.126-0.171-4.334,0.154-6.348-0.548
						c-4.363-1.521-6.106-7.158-10.364-8.954c-3.183-1.343-6.848-0.147-9.934,1.406c-3.086,1.553-6.135,3.507-9.583,3.728
						c-2.999,0.192-6.255-0.92-8.879,0.545c-1.955,1.092-2.979,3.344-4.781,4.674c-1.763,1.3-4.063,1.576-6.25,1.695
						c-2.187,0.119-4.452,0.141-6.444,1.053c-1.992,0.912-3.639,3.018-3.226,5.169L322.731,210.286z"/>
				</g>
			</g>
		</g>
	</g>
	<g>
		<g>
			<g>
				<g>
					<path style="fill:#EBEBEB;" d="M105.691,337.343c0.477-3.463-4.41-6.311-8.083-6.607c-1.751-0.141-3.57,0.126-5.229-0.452
						c-3.594-1.253-5.03-5.897-8.537-7.376c-2.622-1.106-5.641-0.121-8.183,1.158c-2.542,1.279-5.054,2.889-7.894,3.071
						c-2.47,0.158-5.153-0.758-7.314,0.449c-1.611,0.899-2.454,2.755-3.939,3.85c-1.452,1.071-3.347,1.298-5.148,1.396
						c-1.802,0.098-3.667,0.116-5.308,0.867c-1.641,0.751-2.998,2.486-2.658,4.258L105.691,337.343z"/>
				</g>
			</g>
		</g>
	</g>
	<g>
		<g>
			<g>
				<g>
					<path style="fill:#F5F5F5;" d="M215.81,279.249c0.375-2.722-3.467-4.961-6.354-5.194c-1.376-0.111-2.806,0.099-4.111-0.355
						c-2.826-0.985-3.954-4.635-6.711-5.798c-2.061-0.869-4.434-0.095-6.432,0.91c-1.998,1.006-3.973,2.271-6.205,2.414
						c-1.942,0.124-4.051-0.596-5.749,0.353c-1.266,0.707-1.929,2.166-3.096,3.026c-1.142,0.842-2.631,1.02-4.047,1.097
						c-1.416,0.077-2.883,0.091-4.173,0.682c-1.29,0.591-2.357,1.954-2.089,3.347L215.81,279.249z"/>
				</g>
			</g>
		</g>
	</g>
	<g>
		<g>
			<g>
				<g>
					<path style="fill:#F5F5F5;" d="M454.53,327.847c0.375-2.722-3.467-4.961-6.353-5.194c-1.377-0.111-2.806,0.099-4.111-0.355
						c-2.826-0.985-3.954-4.635-6.711-5.798c-2.061-0.869-4.434-0.096-6.432,0.91c-1.998,1.006-3.973,2.271-6.205,2.414
						c-1.942,0.124-4.051-0.596-5.75,0.353c-1.266,0.707-1.929,2.166-3.096,3.026c-1.142,0.842-2.631,1.02-4.047,1.097
						c-1.416,0.077-2.883,0.091-4.173,0.682c-1.29,0.59-2.357,1.954-2.089,3.347L454.53,327.847z"/>
				</g>
			</g>
		</g>
	</g>
	<g>
		<g>
			<g>
				<g>
					<path style="fill:#EBEBEB;" d="M153.853,57.912c0.523-3.8-4.84-6.926-8.87-7.251c-1.922-0.155-3.918,0.139-5.739-0.496
						c-3.945-1.375-5.52-6.471-9.369-8.095c-2.878-1.214-6.191-0.133-8.98,1.271c-2.79,1.404-5.547,3.171-8.663,3.371
						c-2.711,0.174-5.655-0.832-8.027,0.492c-1.767,0.987-2.693,3.024-4.322,4.225c-1.594,1.175-3.673,1.424-5.65,1.532
						c-1.978,0.108-4.025,0.127-5.826,0.952c-1.801,0.824-3.29,2.728-2.916,4.673L153.853,57.912z"/>
				</g>
			</g>
		</g>
	</g>
	<g>
		<g>
			<polygon style="fill:#E0E0E0;" points="321.827,407.114 358.754,368.616 365.71,361.354 386.527,339.621 401.966,356.566 
				450.678,411.828 482.105,479.218 360.325,479.218 			"/>
		</g>
		<g>
			<path style="fill:#F5F5F5;" d="M358.754,368.616l6.956-7.262l20.817-21.733l16.504,18.153l-5.838,12.443l-1.666-10.902
				l-13.467,19.88c0,0,2.271-17.957,2.311-17.743C384.41,361.666,358.754,368.616,358.754,368.616z"/>
		</g>
	</g>
	<g>
		<g>
			<path style="fill:#E0E0E0;" d="M33.322,479.218l13.71-47.413c0,0,22.319-11.116,22.233-11.116
				c-0.086,0,22.587-39.271,22.587-39.271h10.019l69.076,97.801H33.322z"/>
		</g>
		<g>
			<polyline style="fill:#F5F5F5;" points="74.535,411.458 91.851,381.417 101.87,381.417 114.065,398.684 104.175,392.095 
				95.8,407.132 93.516,396.438 74.535,412.461 			"/>
		</g>
	</g>
</g>
<g id="Background_Simple" style="display:none;">
	<g style="display:inline;">
		<path style="fill:#F5F5F5;" d="M393.121,68.968l-1.67-2.752c-14.076-23.196-39.527-37.18-66.36-35.483
			c-3.449,0.218-6.884,0.685-10.272,1.41c-24.397,5.222-45.625,23.671-54.424,47.299c-5.175,13.896-6.621,29.895-16.441,40.925
			c-12.78,14.355-34.478,14.806-53.555,14.211c-19.077-0.595-40.789-0.088-53.508,14.324c-7.965,9.026-10.497,21.861-9.854,33.948
			c1.701,32.001,24,60.616,52.358,74.838s61.748,15.497,92.785,9.24c43.479-8.765,84.828-32.835,109.681-70.011
			S413.006,109.094,393.121,68.968z"/>
	</g>
	<g style="display:inline;">
		
			<ellipse transform="matrix(0.1989 -0.98 0.98 0.1989 2.3434 682.6503)" style="fill:#F5F5F5;" cx="418.743" cy="339.892" rx="32.567" ry="32.567"/>
	</g>
</g>
<g id="Floor">
	<g>
		<g>
			<path style="fill:#263238;" d="M486.312,479.415c0,0.144-105.809,0.26-236.301,0.26c-130.537,0-236.323-0.117-236.323-0.26
				c0-0.144,105.786-0.26,236.323-0.26C380.503,479.155,486.312,479.271,486.312,479.415z"/>
		</g>
	</g>
</g>
<g id="Compass">
	<g>
		<g>
			<g>
				
					<ellipse transform="matrix(0.7071 -0.7071 0.7071 0.7071 -85.5862 142.9424)" style="fill:#FFFFFF;" cx="129.754" cy="174.783" rx="60.534" ry="60.534"/>
			</g>
			<g>
				<g>
					<path style="fill:#FF725E;" d="M155.234,232.082c-31.595,14.05-68.729-0.223-82.78-31.818s0.223-68.729,31.818-82.78
						c31.595-14.05,68.729,0.223,82.78,31.818C201.102,180.897,186.829,218.031,155.234,232.082z M106.04,121.459
						c-29.403,13.076-42.686,47.635-29.611,77.038c13.076,29.403,47.635,42.687,77.038,29.611
						c29.403-13.076,42.686-47.635,29.611-77.038C170.002,121.666,135.443,108.383,106.04,121.459z"/>
				</g>
			</g>
			<g>
				<g>
					<path style="fill:#263238;" d="M137.539,227.143l-0.414,0.065l-0.502-3.257l0.396-0.062L137.539,227.143z M141.674,226.325
						l-0.75-3.209l0.391-0.093l0.767,3.205L141.674,226.325z M132.937,227.695l-0.424,0.031l-0.23-3.287l0.393-0.029
						L132.937,227.695z M146.142,225.11l-0.984-3.145l0.383-0.121l1.001,3.14L146.142,225.11z M128.293,227.861l-0.426-0.005
						l0.053-3.295l0.394,0.005L128.293,227.861z M150.498,223.593l-1.178-3.078l0.37-0.144l1.204,3.068L150.498,223.593z
						 M123.645,227.618l-0.423-0.043l0.351-3.277l0.393,0.04L123.645,227.618z M154.761,221.591l-1.546-2.91l0.348-0.187
						l1.573,2.896L154.761,221.591z M119.035,226.95l-0.417-0.082l0.654-3.23l0.388,0.076L119.035,226.95z M158.766,219.226
						l-1.795-2.764l0.328-0.216l1.824,2.745C159.005,219.07,158.886,219.149,158.766,219.226z M114.509,225.855
						c-0.138-0.04-0.275-0.081-0.412-0.122l0.958-3.153c0.124,0.038,0.249,0.075,0.374,0.111L114.509,225.855z M162.554,216.515
						l-2.042-2.587l0.316-0.25l2.052,2.579L162.554,216.515z M110.098,224.335l-0.386-0.155l1.236-3.055l0.374,0.151
						L110.098,224.335z M166.082,213.485l-2.259-2.399l0.289-0.274l2.274,2.386L166.082,213.485z M105.856,222.406l-0.375-0.194
						l1.524-2.922l0.356,0.184L105.856,222.406z M169.329,210.155l-2.463-2.19l0.267-0.3l2.472,2.179L169.329,210.155z
						 M101.811,220.088c-0.122-0.077-0.243-0.155-0.363-0.234l1.802-2.759c0.109,0.071,0.219,0.141,0.328,0.211L101.811,220.088z
						 M172.268,206.556l-2.642-1.97l0.235-0.317l2.658,1.948L172.268,206.556z M97.998,217.409
						c-0.113-0.087-0.226-0.175-0.338-0.263l2.041-2.587c0.103,0.081,0.206,0.162,0.31,0.242L97.998,217.409z M174.883,202.709
						l-2.804-1.731l0.206-0.338l2.818,1.709L174.883,202.709z M94.445,214.399l-0.307-0.286l2.255-2.404l0.293,0.273L94.445,214.399
						z M177.153,198.646l-2.948-1.472l0.179-0.36l2.954,1.46L177.153,198.646z M91.173,211.094l-0.279-0.309l2.45-2.205l0.27,0.299
						L91.173,211.094z M179.058,194.407l-3.063-1.216l0.145-0.369l3.073,1.192L179.058,194.407z M88.197,207.521l-0.252-0.332
						l2.63-1.986l0.244,0.321L88.197,207.521z M180.587,190.019l-3.154-0.953c0.038-0.125,0.075-0.251,0.111-0.376l3.164,0.92
						C180.668,189.746,180.628,189.883,180.587,190.019z M85.538,203.717c-0.077-0.12-0.152-0.24-0.228-0.36l2.792-1.751
						l0.211,0.333L85.538,203.717z M181.729,185.509l-3.227-0.672l0.079-0.387l3.232,0.642L181.729,185.509z M83.198,199.701
						l-0.195-0.372l2.925-1.519l0.185,0.354L83.198,199.701z M182.473,180.914l-3.273-0.382l0.045-0.396l3.276,0.359
						L182.473,180.914z M81.199,195.515c-0.057-0.132-0.112-0.263-0.167-0.396l3.044-1.263c0.05,0.12,0.101,0.24,0.152,0.359
						L81.199,195.515z M182.811,176.272l-3.294-0.091l0.01-0.401l3.295,0.071L182.811,176.272z M79.547,191.172l-0.131-0.399
						l3.133-1.022l0.125,0.38L79.547,191.172z M182.74,171.622l-3.29,0.193l-0.025-0.396l3.288-0.222L182.74,171.622z
						 M78.258,186.714l-0.099-0.413l3.207-0.759l0.093,0.385L78.258,186.714z M182.258,166.993l-3.26,0.483l-0.06-0.393l3.256-0.511
						L182.258,166.993z M80.599,181.646l-3.256,0.511l-0.064-0.419l3.26-0.482L80.599,181.646z M178.164,163.189l-0.094-0.384
						l3.198-0.796l0.101,0.412L178.164,163.189z M80.104,177.307l-3.288,0.231l-0.028-0.419l3.289-0.211L80.104,177.307z
						 M176.959,158.997l-0.127-0.375l3.115-1.077l0.137,0.403L176.959,158.997z M79.986,172.945l-3.295-0.054l0.009-0.424
						l3.294,0.082L79.986,172.945z M175.39,154.924l-0.161-0.366l3.013-1.335l0.169,0.385L175.39,154.924z M80.253,168.597
						l-3.276-0.354l0.046-0.416l3.274,0.374L80.253,168.597z M174.158,152.301l-0.179-0.352l2.93-1.509l0.193,0.379L174.158,152.301
						z M80.913,164.291l-3.231-0.649l0.085-0.415l3.225,0.677L80.913,164.291z M172.024,148.496l-0.209-0.334l2.785-1.761
						c0.076,0.12,0.152,0.24,0.226,0.361L172.024,148.496z M81.969,160.067l-3.157-0.943c0.041-0.136,0.082-0.272,0.124-0.408
						l3.148,0.974L81.969,160.067z M169.564,144.893l-0.237-0.314l2.62-1.998c0.086,0.113,0.172,0.226,0.257,0.34L169.564,144.893z
						 M83.414,155.969l-3.051-1.246l0.16-0.388l3.043,1.264L83.414,155.969z M166.797,141.522l-0.264-0.292l2.434-2.222
						c0.096,0.105,0.191,0.21,0.286,0.316L166.797,141.522z M85.243,152.019l-2.921-1.525c0.066-0.126,0.132-0.251,0.199-0.377
						l2.906,1.553L85.243,152.019z M163.747,138.411l-0.293-0.272l2.233-2.423l0.306,0.283L163.747,138.411z M87.437,148.26
						l-2.767-1.79l0.232-0.355l2.752,1.813L87.437,148.26z M160.43,135.577l-0.314-0.243l2.009-2.613l0.333,0.258L160.43,135.577z
						 M89.972,144.719l-2.591-2.036l0.264-0.333l2.573,2.06L89.972,144.719z M156.877,133.045l-0.331-0.213l1.77-2.78l0.357,0.229
						L156.877,133.045z M92.819,141.418l-2.4-2.258c0.097-0.103,0.195-0.206,0.294-0.309l2.377,2.283L92.819,141.418z
						 M153.116,130.833c-0.115-0.061-0.231-0.122-0.347-0.182l1.519-2.925c0.127,0.065,0.252,0.132,0.378,0.199L153.116,130.833z
						 M95.946,138.372l-2.198-2.455l0.313-0.278l2.185,2.467L95.946,138.372z M149.177,128.958l-0.364-0.152l1.26-3.045l0.393,0.164
						L149.177,128.958z M99.32,135.586l-1.997-2.622l0.338-0.255l1.976,2.637L99.32,135.586z M145.09,127.433l-0.38-0.122
						l0.995-3.142l0.401,0.128L145.09,127.433z M102.904,133.066l-1.794-2.764l0.353-0.228l1.777,2.776L102.904,133.066z
						 M140.884,126.269l-0.387-0.088l0.714-3.217l0.413,0.093L140.884,126.269z M106.669,130.806l-1.596-2.883l0.366-0.202
						l1.582,2.891L106.669,130.806z M136.593,125.477l-0.394-0.053l0.431-3.268l0.419,0.057L136.593,125.477z M110.541,128.87
						l-1.276-3.038l0.393-0.163l1.248,3.05L110.541,128.87z M132.248,125.063l-0.395-0.019l0.14-3.293l0.426,0.02L132.248,125.063z
						 M114.635,127.359l-1.006-3.138l0.404-0.128l0.981,3.146L114.635,127.359z M127.887,125.033l-0.399,0.017l-0.15-3.292
						l0.423-0.018L127.887,125.033z M118.844,126.212l-0.726-3.215l0.412-0.091l0.702,3.22L118.844,126.212z M123.538,125.387
						l-0.396,0.052l-0.44-3.266l0.42-0.055L123.538,125.387z"/>
				</g>
			</g>
			<g>
				<g>
					<path style="fill:#263238;" d="M106.04,121.459c0,0,1.16-0.552,3.439-1.433c2.277-0.879,5.725-1.993,10.296-2.827
						c4.566-0.791,10.299-1.242,16.864-0.465c6.542,0.782,13.928,2.799,21.242,6.781c3.657,1.976,7.263,4.468,10.665,7.474
						c3.398,3.004,6.619,6.508,9.376,10.551c2.772,4.026,5.166,8.53,6.911,13.443c0.918,2.44,1.597,5.002,2.189,7.613
						c0.555,2.623,0.928,5.317,1.142,8.059c0.779,10.959-1.616,22.767-7.586,33.174c-1.464,2.613-3.192,5.101-5.075,7.491
						c-1.882,2.393-3.984,4.645-6.275,6.72c-4.548,4.194-9.88,7.647-15.665,10.259c-5.816,2.549-11.952,4.197-18.115,4.767
						c-3.077,0.313-6.158,0.365-9.196,0.16c-3.037-0.202-6.043-0.584-8.964-1.247c-11.73-2.536-22.104-8.667-29.721-16.587
						c-1.894-1.996-3.644-4.078-5.22-6.247c-1.543-2.189-2.991-4.41-4.188-6.726c-2.479-4.587-4.22-9.382-5.353-14.137
						c-1.155-4.755-1.6-9.494-1.554-14.03c0.047-4.539,0.612-8.886,1.595-12.925c1.943-8.098,5.392-14.933,9.193-20.313
						c3.82-5.394,7.994-9.348,11.64-12.209c3.681-2.835,6.817-4.649,8.994-5.751C104.854,121.95,106.04,121.459,106.04,121.459
						s-0.283,0.151-0.845,0.426c-0.554,0.29-1.416,0.648-2.481,1.244c-2.162,1.125-5.277,2.959-8.932,5.805
						c-3.619,2.872-7.761,6.83-11.548,12.216c-3.768,5.372-7.181,12.185-9.095,20.246c-0.968,4.02-1.521,8.346-1.559,12.859
						c-0.037,4.51,0.413,9.22,1.569,13.945c1.133,4.724,2.87,9.487,5.339,14.042c1.192,2.3,2.634,4.504,4.168,6.677
						c1.568,2.153,3.309,4.219,5.192,6.2c7.573,7.859,17.879,13.939,29.528,16.452c2.901,0.657,5.886,1.035,8.9,1.235
						c3.016,0.202,6.075,0.15,9.129-0.162c6.117-0.566,12.208-2.203,17.982-4.734c5.744-2.594,11.036-6.02,15.552-10.183
						c2.275-2.06,4.362-4.295,6.232-6.67c1.87-2.372,3.588-4.842,5.042-7.435c5.934-10.33,8.32-22.054,7.557-32.939
						c-0.21-2.724-0.578-5.401-1.126-8.007c-0.586-2.595-1.256-5.141-2.166-7.566c-1.728-4.884-4.101-9.363-6.85-13.369
						c-2.734-4.022-5.929-7.511-9.303-10.505c-3.377-2.995-6.958-5.482-10.592-7.456c-7.267-3.978-14.612-6.008-21.125-6.809
						c-6.535-0.796-12.249-0.371-16.807,0.392c-4.562,0.807-8.011,1.892-10.295,2.744c-1.156,0.392-1.999,0.792-2.586,1.009
						C106.342,121.349,106.04,121.459,106.04,121.459z"/>
				</g>
			</g>
		</g>
		<g>
			<path style="fill:#E0E0E0;" d="M96.434,116.345c-2.86,0.484-5.807,0.195-8.586-0.873c-4.086-1.571-7.316-4.639-9.095-8.639
				c-1.779-4-1.893-8.453-0.323-12.539c1.571-4.086,4.638-7.316,8.639-9.095c8.255-3.67,17.962,0.06,21.635,8.316l0,0
				c1.778,4,1.893,8.453,0.323,12.539c-1.571,4.086-4.638,7.316-8.639,9.095C99.108,115.718,97.78,116.117,96.434,116.345z
				 M91.7,88.047c-1.01,0.171-2.005,0.47-2.965,0.897c-2.999,1.334-5.3,3.756-6.478,6.82c-1.178,3.064-1.092,6.404,0.242,9.404
				c2.754,6.192,10.032,8.99,16.224,6.236c2.999-1.334,5.3-3.756,6.478-6.821c1.178-3.064,1.092-6.403-0.242-9.403l0,0
				c-1.334-3-3.756-5.3-6.82-6.478C96.055,87.901,93.844,87.684,91.7,88.047z"/>
		</g>
		<g>
			<path style="fill:#FF725E;" d="M109.632,115.938l-12.696,5.646l-3.082-6.931c-1.559-3.506,0.019-7.612,3.525-9.171l0,0
				c3.506-1.559,7.611,0.019,9.171,3.525L109.632,115.938z"/>
		</g>
		<g>
			<g>
				<path style="fill:#263238;" d="M116.432,113.73c0.005,0.029-0.401,0.138-1.137,0.309c-0.37,0.078-0.817,0.197-1.335,0.337
					c-0.52,0.132-1.109,0.292-1.754,0.495c-2.591,0.76-6.096,2.064-9.816,3.839c-3.719,1.782-6.941,3.679-9.2,5.162
					c-1.135,0.734-2.033,1.36-2.649,1.798c-0.617,0.438-0.967,0.67-0.985,0.647c-0.018-0.023,0.297-0.299,0.885-0.779
					c0.588-0.48,1.463-1.146,2.581-1.915c2.226-1.554,5.444-3.505,9.184-5.296c3.742-1.785,7.289-3.054,9.918-3.744
					c0.654-0.185,1.252-0.326,1.78-0.436c0.526-0.119,0.981-0.215,1.357-0.268C116.011,113.754,116.427,113.701,116.432,113.73z"/>
			</g>
		</g>
		<g>
			<g>
				
					<ellipse transform="matrix(0.3424 -0.9396 0.9396 0.3424 -78.5605 237.4345)" style="fill:#F5F5F5;" cx="130.329" cy="174.836" rx="28.282" ry="28.282"/>
			</g>
			<g>
				<polygon style="fill:#E0E0E0;" points="124.587,172.824 116.07,143.489 132.869,169.141 				"/>
			</g>
			<g>
				<polygon style="fill:#E0E0E0;" points="130.396,179.598 101.06,188.115 126.712,171.316 				"/>
			</g>
			<g>
				<polygon style="fill:#E0E0E0;" points="136.344,176.953 144.861,206.288 128.061,180.637 				"/>
			</g>
			<g>
				<polygon style="fill:#E0E0E0;" points="130.535,170.179 159.87,161.662 134.218,178.462 				"/>
			</g>
			<g>
				<polygon style="fill:#E0E0E0;" points="126.835,175.622 109.511,165.348 129.159,170.115 				"/>
			</g>
			<g>
				<polygon style="fill:#E0E0E0;" points="132.684,176.262 122.41,193.586 127.177,173.938 				"/>
			</g>
			<g>
				<polygon style="fill:#E0E0E0;" points="134.353,172.308 151.677,182.582 132.029,177.814 				"/>
			</g>
			<g>
				<polygon style="fill:#E0E0E0;" points="128.504,171.668 138.778,154.344 134.011,173.992 				"/>
			</g>
			<g>
				<polygon style="fill:#E0E0E0;" points="126.735,174.612 113.414,158.176 131.033,170.035 				"/>
			</g>
			<g>
				<polygon style="fill:#E0E0E0;" points="132.264,177.375 115.827,190.697 127.687,173.078 				"/>
			</g>
			<g>
				<polygon style="fill:#E0E0E0;" points="135.35,174.088 148.671,190.525 131.053,178.666 				"/>
			</g>
			<g>
				<polygon style="fill:#E0E0E0;" points="129.821,171.325 146.258,158.004 134.399,175.622 				"/>
			</g>
			<g>
				<g>
					<polygon style="fill:#E0E0E0;" points="127.615,178.163 106.583,175.87 127.444,171.887 					"/>
				</g>
				<g>
					<polygon style="fill:#E0E0E0;" points="133.487,176.232 131.195,197.265 127.211,176.403 					"/>
				</g>
				<g>
					<polygon style="fill:#E0E0E0;" points="133.364,171.725 154.396,174.017 133.535,178.001 					"/>
				</g>
				<g>
					<polygon style="fill:#E0E0E0;" points="127.492,173.656 129.785,152.623 133.768,173.484 					"/>
				</g>
			</g>
			<g>
				<g>
					<path style="fill:#EBEBEB;" d="M159.992,161.146c0,0-0.095-0.154-0.259-0.463c-0.169-0.323-0.409-0.781-0.721-1.376
						c-0.158-0.304-0.333-0.643-0.526-1.016c-0.21-0.364-0.476-0.742-0.743-1.163c-0.272-0.419-0.564-0.869-0.877-1.35
						c-0.294-0.495-0.723-0.938-1.114-1.454c-1.551-2.072-3.841-4.316-6.826-6.447c-2.994-2.113-6.804-4.016-11.308-5.068
						c-0.563-0.127-1.133-0.255-1.71-0.385c-0.583-0.095-1.179-0.155-1.777-0.235c-0.601-0.059-1.203-0.189-1.821-0.193
						c-0.617-0.018-1.241-0.036-1.871-0.054c-0.315-0.008-0.631-0.015-0.95-0.023c-0.317,0.022-0.636,0.044-0.957,0.067
						c-0.641,0.044-1.288,0.089-1.942,0.134c-0.651,0.065-1.299,0.208-1.957,0.31c-0.654,0.13-1.33,0.18-1.978,0.392
						c-1.305,0.372-2.658,0.67-3.946,1.235c-0.65,0.263-1.323,0.487-1.968,0.786c-0.635,0.323-1.274,0.648-1.919,0.975
						c-0.319,0.169-0.653,0.315-0.963,0.505l-0.922,0.592c-0.612,0.403-1.249,0.779-1.852,1.212c-1.151,0.939-2.39,1.808-3.44,2.92
						c-1.141,1.018-2.101,2.232-3.113,3.421c-0.475,0.618-0.9,1.281-1.357,1.925c-0.217,0.329-0.467,0.639-0.659,0.987l-0.582,1.042
						c-0.838,1.364-1.432,2.868-2.093,4.356c-0.507,1.548-1.075,3.094-1.378,4.73l-0.276,1.216l-0.163,1.241l-0.159,1.247
						c-0.064,0.416-0.105,0.834-0.103,1.257c-0.025,0.843-0.051,1.69-0.077,2.539c0.057,0.848,0.115,1.7,0.172,2.554
						c0.357,3.407,1.242,6.8,2.63,10.036c1.474,3.2,3.4,6.132,5.691,8.68c0.596,0.615,1.19,1.229,1.782,1.839
						c0.648,0.55,1.294,1.098,1.938,1.644l0.484,0.406l0.518,0.36l1.033,0.717l1.031,0.711l1.088,0.609
						c1.418,0.871,2.947,1.486,4.436,2.146c1.548,0.506,3.063,1.073,4.637,1.364l1.164,0.266c0.387,0.091,0.785,0.112,1.174,0.172
						c0.784,0.092,1.561,0.221,2.338,0.282c1.561,0.045,3.105,0.146,4.626-0.02c1.53-0.035,3.005-0.372,4.473-0.598
						c0.725-0.158,1.432-0.379,2.141-0.563l1.057-0.288c0.349-0.103,0.681-0.253,1.02-0.377c0.675-0.259,1.344-0.516,2.009-0.772
						c0.654-0.279,1.272-0.628,1.902-0.935c1.283-0.579,2.41-1.384,3.56-2.103c0.591-0.339,1.082-0.807,1.616-1.206
						c0.517-0.421,1.057-0.806,1.541-1.246c0.471-0.455,0.938-0.906,1.4-1.352l0.691-0.666l0.619-0.721
						c0.409-0.48,0.813-0.955,1.213-1.425c0.411-0.462,0.718-0.996,1.076-1.482c0.341-0.499,0.696-0.981,1.016-1.477
						c0.29-0.515,0.576-1.025,0.859-1.528c2.236-4.049,3.374-8.153,3.81-11.791c0.417-3.644,0.284-6.848-0.216-9.386
						c-0.122-0.635-0.163-1.251-0.334-1.8c-0.148-0.554-0.286-1.073-0.415-1.555c-0.133-0.48-0.235-0.931-0.365-1.331
						c-0.147-0.393-0.281-0.75-0.402-1.071c-0.233-0.63-0.412-1.115-0.539-1.457C160.044,161.32,159.992,161.146,159.992,161.146
						s0.078,0.161,0.211,0.486c0.136,0.339,0.329,0.819,0.579,1.444c0.126,0.32,0.267,0.675,0.422,1.067
						c0.137,0.399,0.246,0.849,0.386,1.329c0.135,0.483,0.281,1.002,0.436,1.556c0.177,0.551,0.226,1.168,0.354,1.805
						c0.527,2.547,0.686,5.77,0.289,9.443c-0.417,3.667-1.543,7.812-3.783,11.908c-0.284,0.509-0.571,1.025-0.861,1.546
						c-0.32,0.503-0.677,0.991-1.019,1.496c-0.36,0.492-0.669,1.032-1.081,1.5c-0.402,0.476-0.809,0.958-1.22,1.444l-0.623,0.73
						l-0.695,0.676c-0.466,0.452-0.936,0.909-1.411,1.37c-0.488,0.446-1.032,0.837-1.553,1.264c-0.538,0.404-1.034,0.879-1.63,1.224
						c-1.16,0.731-2.299,1.547-3.594,2.136c-0.636,0.312-1.26,0.666-1.921,0.95c-0.672,0.26-1.348,0.522-2.03,0.786
						c-0.343,0.126-0.679,0.278-1.031,0.383l-1.069,0.294c-0.717,0.188-1.431,0.413-2.165,0.574
						c-1.485,0.233-2.978,0.576-4.526,0.614c-1.539,0.17-3.102,0.071-4.683,0.028c-0.787-0.061-1.574-0.189-2.368-0.282
						c-0.395-0.06-0.798-0.081-1.189-0.173l-1.179-0.267c-1.594-0.294-3.129-0.864-4.697-1.376
						c-1.509-0.666-3.058-1.289-4.495-2.169l-1.103-0.617l-1.045-0.719l-1.047-0.726l-0.525-0.364l-0.491-0.411
						c-0.652-0.553-1.307-1.108-1.964-1.665c-0.6-0.618-1.202-1.239-1.806-1.863c-2.322-2.58-4.275-5.551-5.767-8.792
						c-1.407-3.278-2.303-6.717-2.663-10.169c-0.058-0.866-0.115-1.729-0.173-2.588c0.026-0.861,0.053-1.718,0.079-2.573
						c-0.001-0.428,0.041-0.852,0.105-1.273l0.162-1.263l0.167-1.257l0.28-1.232c0.309-1.656,0.884-3.223,1.4-4.789
						c0.67-1.507,1.274-3.028,2.124-4.409l0.591-1.054c0.195-0.352,0.448-0.665,0.669-0.999c0.463-0.651,0.894-1.321,1.376-1.947
						c1.026-1.203,2-2.429,3.156-3.458c1.065-1.124,2.32-2.002,3.487-2.949c0.611-0.437,1.256-0.816,1.876-1.223l0.934-0.597
						c0.314-0.191,0.652-0.339,0.975-0.509c0.652-0.329,1.3-0.657,1.943-0.981c0.653-0.301,1.334-0.527,1.992-0.79
						c1.304-0.567,2.673-0.866,3.993-1.238c0.655-0.212,1.339-0.262,2-0.391c0.666-0.101,1.321-0.243,1.979-0.307
						c0.66-0.044,1.315-0.087,1.963-0.13c0.324-0.021,0.646-0.042,0.967-0.064c0.321,0.009,0.641,0.018,0.959,0.026
						c0.636,0.02,1.266,0.041,1.889,0.061c0.624,0.007,1.232,0.139,1.839,0.202c0.604,0.083,1.206,0.146,1.793,0.244
						c0.581,0.133,1.156,0.265,1.725,0.396c4.541,1.08,8.374,3.02,11.376,5.166c2.994,2.165,5.281,4.442,6.819,6.54
						c0.387,0.522,0.813,0.972,1.103,1.472c0.308,0.487,0.596,0.943,0.864,1.367c0.263,0.426,0.524,0.808,0.729,1.177
						c0.187,0.377,0.357,0.72,0.51,1.029c0.296,0.605,0.524,1.069,0.684,1.398C159.925,160.98,159.992,161.146,159.992,161.146z"/>
				</g>
			</g>
			<g>
				<path style="fill:#263238;" d="M114.973,131.851l3.071,6.906l-1.312,0.584l-5.308-2.661l1.864,4.193l-1.577,0.701l-3.071-6.906
					l1.321-0.588l5.298,2.666l-1.864-4.193L114.973,131.851z"/>
			</g>
			<g>
				<path style="fill:#263238;" d="M146.563,215.841c-0.575,0.078-1.07,0.068-1.485-0.032l0.008-1.444
					c0.392,0.085,0.822,0.103,1.288,0.053c0.467-0.049,0.903-0.165,1.312-0.346c0.453-0.202,0.758-0.419,0.916-0.65
					c0.157-0.232,0.186-0.459,0.087-0.682c-0.073-0.165-0.198-0.273-0.375-0.324c-0.177-0.051-0.38-0.066-0.609-0.042
					c-0.23,0.023-0.533,0.071-0.91,0.145c-0.582,0.11-1.068,0.176-1.458,0.2c-0.392,0.024-0.768-0.049-1.132-0.219
					c-0.363-0.169-0.646-0.484-0.851-0.944c-0.179-0.402-0.232-0.814-0.16-1.236c0.072-0.422,0.285-0.825,0.638-1.21
					c0.352-0.385,0.844-0.718,1.476-0.999c0.44-0.196,0.895-0.334,1.362-0.417c0.468-0.082,0.904-0.094,1.308-0.037l0.047,1.433
					c-0.799-0.079-1.518,0.025-2.156,0.308c-0.448,0.199-0.746,0.418-0.895,0.658c-0.15,0.239-0.172,0.477-0.067,0.714
					c0.105,0.236,0.307,0.357,0.604,0.363c0.298,0.006,0.725-0.048,1.281-0.161c0.582-0.11,1.068-0.177,1.459-0.2
					c0.391-0.024,0.767,0.046,1.126,0.208c0.36,0.163,0.642,0.474,0.847,0.935c0.176,0.395,0.225,0.803,0.15,1.227
					c-0.076,0.424-0.291,0.829-0.647,1.216c-0.356,0.386-0.85,0.72-1.481,1.001C147.7,215.602,147.139,215.762,146.563,215.841z"/>
			</g>
			<g>
				<path style="fill:#263238;" d="M164.727,160.311l-1.283,0.57l-2.378-5.347l6.905-3.071l2.321,5.219l-1.282,0.57l-1.614-3.63
					l-1.499,0.667l1.426,3.206l-1.243,0.553l-1.426-3.206l-1.598,0.711L164.727,160.311z"/>
			</g>
			<g>
				<path style="fill:#263238;" d="M88.024,185.519l7.91-0.812l0.763,1.717l-4,3.598l5.374-0.511l0.759,1.707l-5.897,5.339
					l-0.736-1.657l4.161-3.717l-5.578,0.53l-0.658-1.48l4.191-3.753l-5.608,0.568L88.024,185.519z"/>
			</g>
			<g>
				<polygon style="fill:#FF725E;" points="126.438,169.724 131.541,135.369 134.202,169.788 				"/>
			</g>
			<g>
				<polygon style="fill:#455A64;" points="133.723,180.208 129.432,214.674 125.96,180.327 				"/>
			</g>
			<g>
				<path style="fill:#263238;" d="M136.352,171.989c1.56,3.508-0.019,7.617-3.528,9.178c-3.508,1.56-7.617-0.019-9.178-3.528
					c-1.56-3.509,0.019-7.618,3.528-9.178C130.683,166.901,134.792,168.48,136.352,171.989z"/>
			</g>
		</g>
		<g style="opacity:0.2;">
			<g>
				<g>
					<g>
						<path d="M188.048,151.484l-66.764,0.529c6.164-1.555,7.489-3.249,9.09-3.982c1.602-0.733,3.423-0.751,5.181-0.847
							c1.759-0.096,3.608-0.317,5.026-1.363c1.449-1.069,2.273-2.88,3.845-3.758c2.11-1.178,4.728-0.284,7.14-0.438
							c2.772-0.177,5.224-1.749,7.706-2.998c2.481-1.249,5.428-2.21,7.988-1.13c3.424,1.444,9.223,5.504,12.732,6.727l4.144-0.94
							C185.641,145.792,186.936,148.537,188.048,151.484z"/>
					</g>
				</g>
			</g>
		</g>
	</g>
</g>
<g id="Speech_Bubble">
	<g>
		<g>
			<g>
				<circle style="fill:#FFFFFF;" cx="304.044" cy="43.196" r="17.803"/>
			</g>
			<g>
				<g>
					<path style="fill:#263238;" d="M321.847,43.196c-0.092,0.009,0.03-1.588-0.655-4.322c-0.321-1.369-0.97-2.984-1.987-4.695
						c-1.025-1.703-2.499-3.481-4.502-4.988c-1.996-1.493-4.512-2.761-7.414-3.271c-2.882-0.491-6.134-0.399-9.229,0.78
						c-1.558,0.542-3.06,1.361-4.44,2.394c-0.713,0.49-1.337,1.104-1.99,1.694c-0.59,0.654-1.21,1.293-1.718,2.035
						c-2.159,2.872-3.376,6.565-3.411,10.37c0.034,3.806,1.251,7.5,3.41,10.373c0.509,0.742,1.129,1.382,1.719,2.036
						c0.653,0.59,1.277,1.204,1.99,1.694c1.38,1.034,2.883,1.852,4.441,2.394c3.095,1.179,6.347,1.271,9.23,0.78
						c2.902-0.51,5.418-1.778,7.414-3.271c2.003-1.507,3.476-3.285,4.501-4.988c1.016-1.71,1.665-3.326,1.986-4.694
						C321.878,44.784,321.755,43.188,321.847,43.196c0.009,0,0.013,0.098,0.012,0.289c-0.005,0.221-0.01,0.5-0.017,0.849
						c-0.001,0.374-0.023,0.836-0.115,1.376c-0.074,0.542-0.143,1.171-0.339,1.857c-0.294,1.392-0.923,3.041-1.932,4.794
						c-1.018,1.746-2.498,3.574-4.528,5.132c-2.023,1.543-4.588,2.861-7.558,3.403c-2.949,0.523-6.286,0.444-9.473-0.753
						c-1.603-0.551-3.151-1.387-4.573-2.446c-0.735-0.503-1.378-1.131-2.051-1.738c-0.609-0.67-1.248-1.328-1.773-2.09
						c-2.227-2.952-3.487-6.758-3.52-10.676c0.034-3.916,1.294-7.721,3.521-10.672c0.525-0.762,1.164-1.42,1.773-2.09
						c0.673-0.606,1.316-1.234,2.051-1.737c1.422-1.058,2.97-1.894,4.573-2.445c3.186-1.198,6.522-1.277,9.471-0.753
						c2.97,0.541,5.535,1.859,7.558,3.402c2.03,1.557,3.511,3.386,4.529,5.132c1.01,1.753,1.639,3.403,1.933,4.794
						c0.196,0.686,0.266,1.315,0.339,1.857c0.092,0.54,0.113,1.002,0.115,1.377c0.007,0.349,0.013,0.628,0.017,0.849
						C321.86,43.099,321.856,43.196,321.847,43.196z"/>
				</g>
			</g>
		</g>
		<g>
			<g>
				<path style="fill:#FFFFFF;" d="M284.555,58.586c0,1.757-1.424,3.182-3.182,3.182c-1.757,0-3.182-1.424-3.182-3.182
					c0-1.757,1.424-3.182,3.182-3.182C283.131,55.405,284.555,56.829,284.555,58.586z"/>
			</g>
			<g>
				<g>
					<path style="fill:#263238;" d="M284.555,58.586c-0.046,0.001-0.053-0.283-0.198-0.752c-0.143-0.461-0.473-1.127-1.171-1.631
						c-0.675-0.506-1.768-0.779-2.815-0.38c-1.039,0.367-1.931,1.473-1.919,2.762c-0.012,1.289,0.88,2.396,1.919,2.763
						c1.048,0.399,2.141,0.126,2.816-0.38c0.698-0.504,1.028-1.17,1.17-1.63C284.502,58.869,284.51,58.585,284.555,58.586
						c0.025-0.002,0.09,0.285-0.001,0.801c-0.09,0.505-0.391,1.267-1.144,1.874c-0.726,0.607-1.971,0.975-3.202,0.539
						c-1.22-0.397-2.291-1.693-2.276-3.214c-0.014-1.521,1.057-2.816,2.276-3.213c1.231-0.437,2.476-0.069,3.202,0.538
						c0.752,0.607,1.053,1.369,1.144,1.874C284.645,58.301,284.581,58.588,284.555,58.586z"/>
				</g>
			</g>
		</g>
		<g>
			<g>
				<g>
					<g>
						<g>
							<g>
								<path style="fill:#263238;" d="M298.848,37.604h2.953c0,0,0-2.479,2.576-2.524c1.338-0.023,2.032,0.854,2.314,1.525
									c0.327,0.78,0.228,1.668-0.21,2.391c-0.501,0.826-1.598,1.576-3.588,1.226v6.658h2.92v-3.9c0,0,4.095-1.058,4.095-5.571
									c0-4.318-3.872-5.321-5.53-5.321C303.11,32.088,298.792,32.394,298.848,37.604z"/>
							</g>
						</g>
					</g>
				</g>
				<g>
					<g>
						<g>
							<g>
								<rect x="302.884" y="48.251" style="fill:#263238;" width="2.963" height="2.767"/>
							</g>
						</g>
					</g>
				</g>
			</g>
		</g>
	</g>
</g>
<g id="Character_00000112628037390658931640000017400522330753313983_">
	<g>
		<g>
			<g>
				<g>
					<g>
						<g>
							<path style="fill:#FF725E;" d="M352.585,297.773c1.283,1.815,1.585,4.205,1.142,6.384c-0.443,2.178-1.572,4.166-2.934,5.924
								c-2.634,3.4-6.95,5.825-10.958,7.385c-1.444-4.553,0.695-9.665,1.942-12.19C343.75,301.285,349.738,295.269,352.585,297.773"
								/>
						</g>
					</g>
				</g>
				<g>
					<g>
						<g>
							<path style="fill:#FF725E;" d="M339.746,325.667c0.763-2.363,2.998-4.105,5.44-4.554c2.442-0.448,5.019,0.3,7.037,1.748
								c0.933,0.67,1.817,1.597,1.887,2.743c0.066,1.071-0.632,2.087-1.551,2.641c-0.919,0.555-2.024,0.715-3.097,0.73
								C345.781,329.028,342.209,328.402,339.746,325.667"/>
						</g>
					</g>
				</g>
				<g>
					<g>
						<g>
							<g>
								<path style="fill:#263238;" d="M328.995,334.467c-0.016-0.016,0.188-0.256,0.565-0.683c0.417-0.469,0.957-1.074,1.605-1.802
									c1.37-1.488,3.282-3.651,6.032-5.207c2.728-1.561,5.599-2.186,7.653-2.115c1.028,0.022,1.853,0.165,2.406,0.314
									c0.28,0.063,0.487,0.148,0.63,0.193c0.142,0.05,0.215,0.081,0.212,0.091c-0.014,0.073-1.221-0.392-3.249-0.378
									c-2.016-0.014-4.815,0.631-7.498,2.165c-2.694,1.523-4.613,3.635-6.024,5.086c-0.703,0.737-1.273,1.333-1.678,1.735
									C329.244,334.269,329.01,334.481,328.995,334.467z"/>
							</g>
						</g>
					</g>
				</g>
				<g>
					<g>
						<g>
							<g>
								<path style="fill:#263238;" d="M348.43,302.757c0.009,0.005-0.047,0.126-0.162,0.35c-0.133,0.252-0.305,0.575-0.516,0.975
									c-0.453,0.844-1.125,2.057-1.967,3.549c-1.684,2.984-4.068,7.074-6.803,11.53c-2.737,4.457-5.304,8.435-7.203,11.287
									c-0.949,1.426-1.726,2.574-2.274,3.36c-0.261,0.37-0.472,0.669-0.636,0.902c-0.148,0.204-0.23,0.309-0.239,0.303
									c-0.009-0.006,0.056-0.122,0.187-0.337c0.152-0.241,0.346-0.551,0.587-0.934c0.538-0.839,1.281-1.997,2.19-3.414
									c1.85-2.882,4.387-6.876,7.122-11.329c2.732-4.453,5.145-8.522,6.877-11.477c0.852-1.452,1.548-2.639,2.052-3.499
									c0.233-0.388,0.421-0.702,0.567-0.946C348.346,302.862,348.42,302.752,348.43,302.757z"/>
							</g>
						</g>
					</g>
				</g>
				<g>
					<g>
						<g>
							<path style="fill:#FF725E;" d="M333.074,324.656c1.986-4.844,1.437-10.649-1.423-15.034
								c-0.728-1.117-1.875-2.254-3.184-2.003c-1.312,0.251-1.957,1.741-2.19,3.056c-0.967,5.472,1.76,11.408,6.542,14.238"/>
						</g>
					</g>
				</g>
				<g>
					<g>
						<g>
							<g>
								<path style="fill:#263238;" d="M330.043,313.388c0.018-0.012,0.187,0.231,0.48,0.681c0.148,0.224,0.327,0.5,0.498,0.841
									c0.171,0.341,0.403,0.712,0.581,1.159c0.191,0.441,0.413,0.921,0.583,1.461c0.201,0.53,0.354,1.116,0.512,1.733
									c0.283,1.241,0.479,2.637,0.476,4.111c-0.017,1.474-0.229,2.868-0.536,4.105c-0.173,0.614-0.335,1.198-0.552,1.722
									c-0.184,0.537-0.419,1.01-0.625,1.444c-0.191,0.442-0.438,0.804-0.622,1.138c-0.183,0.335-0.375,0.603-0.533,0.82
									c-0.312,0.437-0.492,0.672-0.509,0.659c-0.059-0.039,0.662-0.989,1.465-2.712c0.191-0.435,0.411-0.906,0.582-1.439
									c0.204-0.52,0.353-1.098,0.516-1.703c0.286-1.22,0.485-2.589,0.503-4.037c0.003-1.447-0.181-2.819-0.444-4.044
									c-0.147-0.609-0.288-1.189-0.477-1.715c-0.157-0.537-0.364-1.014-0.54-1.456
									C330.655,314.408,329.985,313.423,330.043,313.388z"/>
							</g>
						</g>
					</g>
				</g>
			</g>
			<g>
				<polygon style="fill:#F5F5F5;" points="118.961,432.404 161.874,401.975 168.116,360.623 190.279,345.018 202.565,312.225 
					225.142,290.008 306.587,292.512 336.646,341.117 358.949,394.364 390.394,415.926 414.669,479.218 100.236,479.218 				"/>
			</g>
			<g>
				<g>
					<path style="fill:#263238;" d="M118.961,432.404c0,0-0.395,1.044-1.195,3.071c-0.804,2.029-1.998,5.042-3.568,9.002
						c-3.154,7.921-7.814,19.626-13.851,34.786l-0.113-0.166c61.062-0.026,177.035-0.077,314.433-0.136l-0.24,0.35
						c-7.216-18.812-14.788-38.552-22.493-58.638c-0.596-1.553-1.19-3.104-1.784-4.652l0.096,0.121
						c-10.605-7.273-21.096-14.467-31.445-21.564l-0.063-0.043l-0.029-0.07c-7.604-18.158-15.048-35.935-22.298-53.249l0.018,0.035
						c-10.326-16.705-20.362-32.94-30.049-48.611l0.198,0.115c-28.935-0.899-56.228-1.747-81.444-2.53l0.158-0.062
						c-7.855,7.723-15.371,15.112-22.587,22.206l0.047-0.073c-4.363,11.626-8.452,22.521-12.305,32.786l-0.02,0.052l-0.046,0.032
						c-7.92,5.568-15.266,10.733-22.174,15.589l0.067-0.108c-2.435,16.03-4.507,29.674-6.28,41.346l-0.008,0.052l-0.043,0.03
						c-13.948,9.858-24.683,17.445-31.936,22.571c-3.628,2.556-6.384,4.497-8.239,5.803
						C119.918,431.752,118.961,432.404,118.961,432.404s0.922-0.68,2.759-1.995c1.844-1.317,4.586-3.273,8.194-5.849
						c7.242-5.152,17.961-12.777,31.888-22.685l-0.051,0.082c1.751-11.676,3.798-25.323,6.204-41.358l0.01-0.068l0.057-0.04
						c6.901-4.866,14.24-10.041,22.152-15.62l-0.065,0.084c3.841-10.27,7.917-21.169,12.267-32.8l0.016-0.042l0.032-0.031
						c7.209-7.1,14.718-14.496,22.566-22.227l0.066-0.065l0.092,0.003c25.217,0.767,52.51,1.597,81.446,2.477l0.13,0.004
						l0.068,0.111c9.693,15.667,19.735,31.898,30.068,48.599l0.01,0.017l0.008,0.019c7.253,17.312,14.701,35.087,22.308,53.244
						l-0.092-0.113c10.349,7.096,20.84,14.289,31.446,21.561l0.067,0.046l0.029,0.076c0.594,1.548,1.189,3.099,1.784,4.652
						c7.703,20.087,15.273,39.827,22.488,58.64l0.134,0.35l-0.375,0c-137.398-0.06-253.371-0.11-314.433-0.136h-0.18l0.067-0.166
						c6.089-15.152,10.789-26.85,13.971-34.767c1.593-3.946,2.805-6.948,3.621-8.97
						C118.532,433.422,118.961,432.404,118.961,432.404z"/>
				</g>
			</g>
			<g>
				<path style="fill:#FAFAFA;" d="M167.72,472.266c0-1.119,19.019-42.513,19.019-42.513l54.354-30.579l63.116,15.663l-59.385-8.95
					l-50.458,29.306L167.72,472.266z"/>
			</g>
			<g>
				<g>
					<path style="fill:#263238;" d="M298.641,413.455c-0.002,0.007-0.097-0.009-0.283-0.048c-0.206-0.046-0.476-0.106-0.823-0.183
						c-0.748-0.176-1.814-0.427-3.185-0.75c-2.801-0.678-6.847-1.657-11.931-2.888c-10.219-2.512-24.606-6.049-41.385-10.173
						l0.18-0.024c-7.801,4.394-16.329,9.197-25.208,14.199c-10.329,5.803-20.181,11.338-29.148,16.377l0.099-0.106
						c-6.951,14.489-12.874,26.834-17.071,35.582c-2.101,4.338-3.769,7.783-4.924,10.167c-0.571,1.16-1.015,2.06-1.327,2.694
						c-0.147,0.29-0.262,0.516-0.351,0.689c-0.081,0.154-0.125,0.231-0.131,0.228c-0.006-0.003,0.026-0.086,0.094-0.245
						c0.079-0.178,0.183-0.41,0.315-0.706c0.296-0.642,0.717-1.553,1.258-2.727c1.126-2.398,2.752-5.863,4.8-10.227
						c4.155-8.767,10.018-21.141,16.9-35.663l0.033-0.069l0.067-0.038c8.962-5.049,18.807-10.595,29.129-16.41
						c8.884-4.992,17.417-9.787,25.222-14.173l0.085-0.048l0.095,0.024c16.76,4.198,31.132,7.798,41.34,10.355
						c5.07,1.289,9.104,2.315,11.897,3.025c1.363,0.356,2.422,0.632,3.166,0.826c0.343,0.094,0.61,0.167,0.813,0.223
						C298.55,413.418,298.642,413.448,298.641,413.455z"/>
				</g>
			</g>
		</g>
		<g>
			<g>
				<g>
					<path style="fill:#FFBF9D;" d="M312.247,77.142c0,0-0.158-0.961-0.633-0.961c-0.475,0-1.187,0.26-1.503,0.961
						C309.795,77.843,312.247,77.142,312.247,77.142z"/>
				</g>
				<g>
					<path style="fill:#FFBF9D;" d="M300.151,92.43l0.475-7.575l1.503-7.799c0,0,1.187-1.269,1.82-0.974
						c0.633,0.295,0.396,1.337,0.396,1.337s1.661-1.795,2.294-1.382c0.633,0.413,0.396,1.382,0.396,1.382s1.503-1.992,2.215-1.444
						c0.712,0.549,0,1.444,0,1.444s0.943,8.738,0.468,11.86c-0.475,3.122-3.134,4.281-3.134,4.281l-1.263,4.915l-6.198-3.373
						L300.151,92.43z"/>
				</g>
				<g>
					<g>
						<polygon style="fill:#FF725E;" points="308.672,82.714 272.678,82.315 272.678,79.434 308.672,78.425 						"/>
					</g>
					<g>
						<path style="fill:#FF725E;" d="M346.68,85.568l-50.86-2.148c-0.635-1.728-0.66-3.599-0.038-5.62l50.54-2.228
							C348.649,77.988,348.675,83.081,346.68,85.568z"/>
					</g>
					<g>
						<path style="fill:#E0E0E0;" d="M346.184,76.036c0,0-1.533,1.435-1.474,4.558c0.06,3.124,1.599,4.437,1.599,4.437
							s1.668-1.763,1.426-4.894C347.497,77.077,346.184,76.036,346.184,76.036z"/>
					</g>
					<g>
						<g>
							<path style="fill:#263238;" d="M344.15,85.568c-0.037,0.032-0.485-0.387-0.989-1.234c-0.499-0.836-1.031-2.157-1.003-3.691
								c0.023-1.503,0.405-2.855,0.892-3.716c0.478-0.871,0.958-1.27,0.99-1.237c0.055,0.045-0.334,0.506-0.72,1.37
								c-0.397,0.857-0.713,2.143-0.737,3.592c-0.027,1.432,0.426,2.695,0.843,3.541C343.845,85.045,344.204,85.527,344.15,85.568z"
								/>
						</g>
					</g>
					<g>
						<g>
							<path style="fill:#263238;" d="M346.417,75.685c0.055,0.043-0.318,0.52-0.723,1.385c-0.407,0.858-0.809,2.141-0.775,3.588
								c0.023,1.45,0.474,2.716,0.91,3.559c0.404,0.883,0.922,1.183,0.903,1.227c-0.009,0.023-0.171-0.004-0.404-0.172
								c-0.234-0.165-0.506-0.485-0.761-0.908c-0.522-0.837-1.048-2.163-1.073-3.697c-0.037-1.535,0.44-2.881,0.932-3.734
								C345.919,76.068,346.383,75.653,346.417,75.685z"/>
						</g>
					</g>
					<g>
						<path style="fill:#FFFFFF;" d="M347.08,78.295c-0.066-0.162-0.145-0.324-0.271-0.446c-0.126-0.122-0.306-0.2-0.478-0.163
							c-0.17,0.036-0.305,0.183-0.353,0.35c-0.049,0.167-0.019,0.35,0.055,0.508c0.184,0.368,0.486,0.709,0.476,1.077
							c-0.01,0.367-0.103,0.732-0.073,1.098c0.011,0.134,0.041,0.271,0.118,0.381c0.078,0.11,0.211,0.188,0.344,0.17
							c0.217-0.03,0.325-0.276,0.376-0.49C347.467,79.957,347.398,79.076,347.08,78.295z"/>
					</g>
					<g>
						<g>
							<path style="fill:#263238;" d="M295.811,83.601c-0.093,0.054-0.731-1.214-0.695-2.921c0.021-1.707,0.702-2.952,0.794-2.896
								c0.12,0.046-0.352,1.295-0.369,2.903C295.504,82.295,295.933,83.559,295.811,83.601z"/>
						</g>
					</g>
					<g>
						<g>
							<path style="fill:#FF725E;" d="M272.603,82.997L272.603,82.997c-0.303,0-0.549-0.246-0.549-0.549v-3.046
								c0-0.304,0.246-0.549,0.549-0.549l0,0c0.304,0,0.55,0.246,0.55,0.549v3.046C273.153,82.751,272.907,82.997,272.603,82.997z"
								/>
						</g>
						<g>
							<g>
								<path style="fill:#263238;" d="M272.603,82.997c-0.004-0.035,0.145-0.038,0.295-0.187c0.071-0.074,0.135-0.188,0.134-0.325
									c-0.01-0.189-0.02-0.379-0.029-0.572c-0.015-0.493-0.03-0.997-0.046-1.517c-0.004-0.294-0.008-0.591-0.012-0.896
									c0.028-0.27-0.13-0.424-0.341-0.436c-0.212,0.012-0.37,0.166-0.342,0.436c-0.004,0.305-0.008,0.602-0.012,0.896
									c-0.016,0.52-0.031,1.024-0.046,1.517c-0.01,0.193-0.02,0.383-0.029,0.572c0,0.136,0.064,0.25,0.135,0.325
									C272.459,82.959,272.608,82.962,272.603,82.997c0.008,0.019-0.155,0.092-0.399-0.059c-0.114-0.076-0.237-0.223-0.267-0.432
									c-0.011-0.196-0.023-0.393-0.034-0.593c-0.015-0.493-0.03-0.997-0.045-1.517c-0.004-0.294-0.008-0.591-0.012-0.896
									c-0.016-0.137,0.021-0.422,0.168-0.579c0.138-0.173,0.362-0.283,0.59-0.282c0.229-0.001,0.452,0.109,0.59,0.282
									c0.146,0.157,0.183,0.442,0.167,0.579c-0.004,0.304-0.008,0.602-0.012,0.896c-0.016,0.52-0.031,1.024-0.046,1.517
									c-0.012,0.2-0.023,0.397-0.034,0.593c-0.03,0.21-0.153,0.356-0.267,0.432C272.758,83.089,272.596,83.016,272.603,82.997z"/>
							</g>
						</g>
					</g>
				</g>
				<g>
					<path style="fill:#FFBF9D;" d="M279.391,89.734c0,0-0.701-8.661-0.493-9.42c0.238-0.869,2.599-3.434,3.434-3.527
						c0.835-0.093,0.928,0.835,0.928,0.835s1.174-0.807,2.32-0.842c1.219-0.037,1.377,1.035,1.377,1.035s0.68-0.501,1.848-0.291
						c0.492,0.088,1.055,0.961,1.055,0.961s1.224-0.528,1.806,0.018c0.733,0.687,0.723,1.915,0.723,1.915
						c-1.135-0.085-2.165,0.689-2.165,0.689s-0.281,3.753-0.745,5.609c-0.464,1.856-2.299,3.389-2.917,4.351l-0.488,6.405
						l-7.884-4.175L279.391,89.734z"/>
				</g>
				<g>
					<g>
						<path style="fill:#FF9A6C;" d="M281.166,80.965c-0.1,0.015-0.133-1.137,0.652-2.246c0.773-1.117,1.867-1.481,1.887-1.382
							c0.054,0.103-0.869,0.586-1.568,1.605C281.42,79.948,281.281,80.981,281.166,80.965z"/>
					</g>
				</g>
				<g>
					<g>
						<path style="fill:#FF9A6C;" d="M285.022,80.816c-0.091,0.035-0.317-0.996,0.326-2.055c0.315-0.517,0.784-0.858,1.157-0.984
							c0.374-0.132,0.622-0.102,0.627-0.057c0.029,0.108-0.906,0.3-1.453,1.246C285.114,79.879,285.142,80.819,285.022,80.816z"/>
					</g>
				</g>
				<g>
					<g>
						<path style="fill:#FF9A6C;" d="M287.844,80.527c-0.101-0.018,0.068-0.841,0.806-1.506c0.731-0.671,1.567-0.762,1.575-0.66
							c0.029,0.11-0.669,0.351-1.313,0.948C288.257,79.894,287.951,80.567,287.844,80.527z"/>
					</g>
				</g>
				<g>
					<g>
						<path style="fill:#FFBF9D;" d="M305.259,90.602c1.345-1.582,0.32-5.824,0.32-5.824s1.899-0.633,2.373-2.532
							c0.475-1.899-0.475-2.215-0.475-2.215c-0.317,0.158-3.244,2.057-4.747,2.848c-1.503,0.791-1.978,8.848-1.978,8.848"/>
					</g>
					<g>
						<g>
							<path style="fill:#FF9A6C;" d="M300.753,91.727c-0.027-0.002-0.032-0.378,0.001-1.056c0.035-0.678,0.104-1.659,0.253-2.866
								c0.173-1.202,0.325-2.652,0.942-4.191c0.09-0.189,0.181-0.382,0.323-0.563c0.121-0.182,0.375-0.355,0.542-0.431
								c0.364-0.2,0.732-0.415,1.105-0.638c0.743-0.456,1.51-0.928,2.296-1.411c0.395-0.243,0.758-0.48,1.172-0.715l0.077-0.044
								l0.074,0.033c0.363,0.16,0.53,0.451,0.634,0.742c0.099,0.294,0.112,0.591,0.097,0.873c-0.041,0.559-0.166,1.095-0.418,1.576
								c-0.508,0.958-1.356,1.576-2.222,1.9l0.108-0.196c0.375,1.791,0.415,3.324,0.217,4.373c-0.09,0.527-0.277,0.912-0.415,1.159
								c-0.167,0.233-0.272,0.341-0.282,0.331c-0.015-0.012,0.063-0.142,0.195-0.379c0.105-0.253,0.255-0.628,0.315-1.142
								c0.138-1.018,0.05-2.526-0.35-4.264l-0.032-0.14l0.141-0.056c0.767-0.303,1.56-0.901,1.994-1.756
								c0.218-0.42,0.331-0.924,0.364-1.426c0.044-0.481-0.111-1.055-0.469-1.22l0.151-0.011c-0.357,0.205-0.754,0.461-1.139,0.699
								c-0.785,0.489-1.554,0.964-2.308,1.409c-0.377,0.222-0.75,0.436-1.123,0.637c-0.212,0.105-0.307,0.173-0.427,0.326
								c-0.115,0.14-0.202,0.317-0.285,0.487c-0.599,1.437-0.794,2.897-0.997,4.078c-0.184,1.195-0.296,2.168-0.377,2.841
								C300.828,91.356,300.781,91.728,300.753,91.727z"/>
						</g>
					</g>
				</g>
			</g>
			<g>
				<g>
					<g>
						<g>
							<g>
								<path style="fill:#263238;" d="M199.418,75.71c1.732,0.22,3.194,1.448,4.829,2.123c3.069,1.269,6.538,0.474,9.167-1.099
									c2.629-1.573,4.656-3.841,6.953-5.804c2.296-1.963,4.089-3.896,7.639-4.598c6.26-1.238,13.194,3.664,10.818,8.699
									l-5.113,2.416c-1.656,7.623-6.036,14.49-12.303,19.29c-1.243,0.952-2.674,1.86-4.35,1.828
									c-1.676-0.032-3.533-1.433-3.341-2.977c-2.572,0.817-5.221,1.624-8.018,1.505c-2.797-0.119-5.813-1.354-7.3-3.695
									c-1.487-2.341-0.751-5.75,1.846-6.508c-2.606-1.242-4.964-3.468-5.4-6.114C194.41,78.131,196.594,75.351,199.418,75.71z"/>
							</g>
						</g>
						<g>
							<g>
								<g>
									<g>
										<path style="fill:#263238;" d="M251.045,59.466c-3.523-0.567-6.604,0.815-9.553,2.824
											c-2.949,2.009-5.157,5.022-6.418,8.36c-1.328,3.516-1.624,7.462-0.548,11.064c1.076,3.602,3.577,6.812,6.943,8.484
											c4.596,2.284,10.442,1.422,14.509-1.71c4.067-3.132,6.362-8.27,6.513-13.401c0.104-3.535-0.772-7.142-2.772-10.058
											C257.718,62.113,254.548,59.949,251.045,59.466"/>
									</g>
								</g>
							</g>
							<g>
								<g>
									<g>
										<path style="fill:#263238;" d="M241.145,71.517c0.503-1.351,0.29-2.851,0.481-4.28c0.421-3.145,1.557-6.007,4.473-7.257
											c2.713-1.163,7.413-0.623,10.703,0.409c2.255,0.707,4.382,1.956,5.897,3.769c2.011,2.407,2.742,5.825,1.891,8.844
											L248.5,70.803c-1.493,1.258-3.023,2.538-4.842,3.248c-0.534,0.208-1.109,0.367-1.675,0.282
											c-0.567-0.085-1.12-0.465-1.259-1.02C240.572,72.705,240.927,72.103,241.145,71.517z"/>
									</g>
								</g>
							</g>
							<g>
								<g>
									<g>
										<path style="fill:#FFBF9D;" d="M241.193,100.867l-0.436-30.363c0.014-1.36,1.066-2.484,2.423-2.586l14.005-3.096
											c4.465-0.337,7.26,5.232,7.408,9.708c0.164,4.972,0.168,11.05-0.532,14.735c-1.406,7.411-7.141,8.187-7.141,8.187
											c-0.001-0.025-0.003,0.284-0.116,2.989c0,0,2.064,6.13-4.2,5.564C248.526,105.638,241.193,100.867,241.193,100.867z"/>
									</g>
								</g>
							</g>
							<g>
								<g>
									<g>
										<path style="fill:#263238;" d="M262.577,80.534c0.003,0.505-0.422,0.924-0.95,0.936c-0.526,0.012-0.956-0.386-0.959-0.891
											c-0.003-0.505,0.423-0.924,0.949-0.936C262.145,79.631,262.575,80.03,262.577,80.534z"/>
									</g>
								</g>
							</g>
							<g>
								<g>
									<g>
										<path style="fill:#263238;" d="M263.181,77.65c-0.122,0.121-0.829-0.436-1.857-0.464
											c-1.026-0.043-1.796,0.463-1.904,0.334c-0.053-0.057,0.074-0.278,0.41-0.508c0.33-0.228,0.889-0.443,1.529-0.421
											c0.64,0.023,1.171,0.275,1.474,0.525C263.141,77.367,263.241,77.595,263.181,77.65z"/>
									</g>
								</g>
							</g>
							<g>
								<g>
									<g>
										<path style="fill:#263238;" d="M254.045,80.205c-0.123,0.121-0.831-0.436-1.858-0.464
											c-1.026-0.043-1.796,0.463-1.904,0.334c-0.053-0.057,0.073-0.278,0.41-0.508c0.33-0.229,0.889-0.443,1.529-0.422
											c0.64,0.023,1.171,0.275,1.474,0.525C254.003,79.923,254.104,80.151,254.045,80.205z"/>
									</g>
								</g>
							</g>
							<g>
								<g>
									<g>
										<path style="fill:#263238;" d="M256.575,85.271c-0.003-0.059,0.639-0.15,1.678-0.251c0.263-0.019,0.513-0.064,0.563-0.242
											c0.068-0.188-0.034-0.474-0.152-0.783c-0.228-0.643-0.466-1.316-0.716-2.021c-0.992-2.877-1.702-5.24-1.586-5.279
											c0.116-0.039,1.015,2.261,2.007,5.139c0.238,0.71,0.466,1.386,0.683,2.033c0.091,0.301,0.251,0.645,0.105,1.034
											c-0.077,0.194-0.273,0.33-0.443,0.371c-0.17,0.046-0.317,0.045-0.447,0.049C257.223,85.344,256.577,85.33,256.575,85.271z
											"/>
									</g>
								</g>
							</g>
							<g>
								<g>
									<g>
										<path style="fill:#FF9A6C;" d="M256.919,97.453c0,0-5.019,0.173-9.892-2.959c0,0,2.353,5.23,9.826,4.757L256.919,97.453z"
											/>
									</g>
								</g>
							</g>
							<g>
								<g>
									<g>
										<path style="fill:#FF9A6C;" d="M256.066,87.735c-0.355-0.5-0.994-0.787-1.639-0.738c-0.447,0.035-0.905,0.236-1.186,0.591
											c-0.282,0.355-0.354,0.869-0.118,1.222c0.266,0.398,0.842,0.506,1.337,0.381c0.495-0.125,0.926-0.435,1.337-0.744
											c0.113-0.086,0.23-0.175,0.303-0.295c0.073-0.12,0.092-0.279,0.01-0.382"/>
									</g>
								</g>
							</g>
							<g>
								<g>
									<g>
										<path style="fill:#263238;" d="M253.529,85.891c0.167-0.005,0.136,1.111,1.067,1.931c0.929,0.823,2.122,0.733,2.126,0.889
											c0.014,0.07-0.271,0.209-0.773,0.207c-0.493,0.002-1.207-0.177-1.777-0.679c-0.568-0.503-0.799-1.158-0.823-1.617
											C253.32,86.155,253.453,85.883,253.529,85.891z"/>
									</g>
								</g>
							</g>
							<g>
								<g>
									<g>
										<path style="fill:#263238;" d="M254.055,76.656c-0.11,0.276-1.132,0.113-2.341,0.222
											c-1.213,0.085-2.195,0.409-2.348,0.153c-0.068-0.122,0.11-0.38,0.511-0.638c0.398-0.258,1.027-0.496,1.753-0.555
											c0.726-0.058,1.385,0.077,1.819,0.269C253.886,76.299,254.102,76.525,254.055,76.656z"/>
									</g>
								</g>
							</g>
							<g>
								<g>
									<g>
										<path style="fill:#263238;" d="M263.018,73.147c-0.188,0.228-0.888-0.036-1.739-0.073
											c-0.849-0.067-1.577,0.11-1.735-0.139c-0.069-0.121,0.051-0.351,0.373-0.563c0.317-0.211,0.842-0.375,1.426-0.34
											c0.584,0.036,1.085,0.263,1.374,0.511C263.009,72.792,263.101,73.035,263.018,73.147z"/>
									</g>
								</g>
							</g>
							<g>
								<g>
									<g>
										<path style="fill:#263238;" d="M238.554,69.373c1.417-4.285,7.717-10.163,12.215-9.798l7.142,4.392
											c-0.462,2.445-2.378,4.557-4.766,5.256c-1.275,0.373-2.808,0.462-3.576,1.547c-0.784,1.108-0.351,2.738-1.082,3.881
											c-1.013,1.585-3.734,1.479-4.5,3.196c-0.335,0.751-0.174,1.653-0.522,2.398c-0.464,0.992-3.001,2.228-4.041,1.885
											c-1.04-0.342-1.023-2.119-1.354-3.054c-0.565-1.598-0.316-2.42-0.114-3.306C238.433,73.669,237.878,71.417,238.554,69.373
											z"/>
									</g>
								</g>
							</g>
							<g>
								<g>
									<g>
										<path style="fill:#FFBF9D;" d="M242.493,83.043c0.015-0.554-0.586-1.881-1.131-1.983c-1.456-0.272-4.095-0.233-4.231,3.48
											c-0.186,5.076,4.949,4.216,4.963,4.07C242.104,88.497,242.44,84.958,242.493,83.043z"/>
									</g>
								</g>
							</g>
							<g>
								<g>
									<g>
										<path style="fill:#FF9A6C;" d="M240.613,86.63c-0.022-0.017-0.091,0.059-0.242,0.122
											c-0.148,0.061-0.401,0.098-0.661-0.011c-0.529-0.216-0.949-1.084-0.941-2c0.004-0.463,0.117-0.899,0.294-1.257
											c0.169-0.366,0.418-0.616,0.69-0.654c0.271-0.053,0.456,0.116,0.513,0.261c0.063,0.145,0.027,0.245,0.054,0.254
											c0.014,0.013,0.112-0.081,0.079-0.292c-0.017-0.102-0.072-0.224-0.188-0.326c-0.118-0.103-0.295-0.161-0.484-0.147
											c-0.392,0.013-0.758,0.36-0.952,0.753c-0.216,0.394-0.354,0.884-0.358,1.404c-0.005,1.024,0.484,2,1.21,2.239
											c0.353,0.106,0.655,0.01,0.814-0.105C240.599,86.753,240.63,86.64,240.613,86.63z"/>
									</g>
								</g>
							</g>
							<g>
								<g>
									<g>
										<path style="fill:#263238;" d="M256.424,62.445c0.485,2.062,3.648,4.683,5.041,6.279c2.657,3.046,3.184,4.06,3.219,10.921
											c1.221-2.38,2.151-4.71,2.032-7.383c-0.119-2.673-1.127-5.342-3.003-7.249C261.838,63.106,259.068,62.038,256.424,62.445"
											/>
									</g>
								</g>
							</g>
						</g>
					</g>
				</g>
				<g>
					<g>
						<path style="fill:#455A64;" d="M237.12,67.084c0.131,0.1-1.503,1.912-2.361,4.706c-0.898,2.783-0.598,5.203-0.763,5.21
							c-0.117,0.05-0.67-2.45,0.266-5.367C235.166,68.708,237.052,66.976,237.12,67.084z"/>
					</g>
				</g>
				<g>
					<g>
						<path style="fill:#263238;" d="M199.441,73.303c0.032-0.039,0.436,0.337,1.295,0.793c0.858,0.442,2.219,0.91,3.956,0.923
							c1.733,0.037,3.781-0.453,5.843-1.478c2.078-0.999,4.153-2.489,6.402-3.971c2.243-1.481,4.562-2.741,6.886-3.26
							c2.308-0.546,4.476-0.47,6.225-0.164c1.756,0.315,3.104,0.859,3.987,1.306c0.442,0.226,0.776,0.416,0.991,0.564
							c0.219,0.142,0.329,0.223,0.319,0.239c-0.048,0.126-1.891-1.204-5.357-1.745c-1.716-0.253-3.824-0.286-6.053,0.267
							c-2.237,0.526-4.485,1.758-6.714,3.229c-2.232,1.47-4.34,2.968-6.479,3.968c-2.119,1.025-4.266,1.501-6.059,1.413
							c-1.799-0.061-3.195-0.603-4.046-1.114c-0.426-0.261-0.732-0.5-0.924-0.677C199.522,73.417,199.429,73.317,199.441,73.303z"/>
					</g>
				</g>
				<g>
					<g>
						<path style="fill:#455A64;" d="M225.796,76.507c-0.012-0.013,0.073-0.104,0.248-0.266c0.186-0.146,0.469-0.364,0.888-0.545
							c0.826-0.389,2.174-0.597,3.778-0.397c1.605,0.163,3.437,0.811,5.488,0.758c1.019-0.03,2.049-0.355,2.987-0.945
							c0.937-0.597,1.786-1.408,2.637-2.269c0.852-0.86,1.698-1.718,2.639-2.42c0.944-0.703,2.014-1.179,3.052-1.438
							c2.077-0.526,3.982-0.616,5.466-1.12c1.496-0.473,2.56-1.221,3.126-1.88c0.583-0.654,0.723-1.147,0.775-1.122
							c0.017,0.006-0.016,0.126-0.095,0.351c-0.091,0.219-0.242,0.542-0.524,0.9c-0.542,0.731-1.631,1.567-3.164,2.1
							c-1.532,0.567-3.461,0.698-5.458,1.234c-1.002,0.265-1.98,0.714-2.874,1.385c-0.893,0.675-1.717,1.513-2.574,2.378
							c-0.855,0.863-1.732,1.703-2.735,2.334c-1.001,0.626-2.153,0.977-3.241,0.992c-2.186,0.023-4-0.674-5.552-0.872
							c-1.554-0.24-2.841-0.095-3.654,0.22C226.187,76.187,225.829,76.551,225.796,76.507z"/>
					</g>
				</g>
			</g>
			<g>
				<path style="fill:#FF725E;" d="M285.9,188.636h3.595c0,0-6.884-21.103-8.962-29.491c-2.079-8.388-4.973-36.265-4.973-36.265
					l-10.67-17.634l-7.37-4.604l20.688,69.353L285.9,188.636z"/>
			</g>
			<g>
				<g>
					<g>
						<g>
							<g>
								<g>
									<g>
										<g>
											<g>
												<g>
													<g>
														<g>
															<g>
																<g>
																	<g>
																		<path style="fill:#263238;" d="M252.772,270.129l-0.638,14.587c0,0,14.613,5.547,14.758,8.254l-28.328-0.221
																			l0.061-22.77L252.772,270.129z"/>
																	</g>
																</g>
															</g>
														</g>
													</g>
												</g>
											</g>
										</g>
									</g>
								</g>
							</g>
						</g>
						<g style="opacity:0.6;">
							<g>
								<g>
									<g>
										<g>
											<g>
												<g>
													<g>
														<g>
															<g>
																<g>
																	<g>
																		<path style="fill:#455A64;" d="M238.564,292.75l0.096-2.295l27.125,1.07c0,0,1.257,0.559,1.107,1.446
																			L238.564,292.75z"/>
																	</g>
																</g>
															</g>
														</g>
													</g>
												</g>
											</g>
										</g>
									</g>
								</g>
							</g>
						</g>
						<g>
							<g>
								<g>
									<g>
										<g>
											<g>
												<g>
													<g>
														<g>
															<g>
																<g>
																	<g>
																		<g>
																			<path style="fill:#455A64;" d="M252.594,284.576c-0.006,0.138-0.698,0.196-1.382,0.635
																				c-0.696,0.422-1.051,1.018-1.178,0.962c-0.127-0.028,0.085-0.853,0.923-1.371
																				C251.79,284.277,252.625,284.449,252.594,284.576z"/>
																		</g>
																	</g>
																</g>
															</g>
														</g>
													</g>
												</g>
											</g>
										</g>
									</g>
								</g>
							</g>
						</g>
						<g>
							<g>
								<g>
									<g>
										<g>
											<g>
												<g>
													<g>
														<g>
															<g>
																<g>
																	<g>
																		<g>
																			<path style="fill:#455A64;" d="M255.556,285.828c0.031,0.134-0.57,0.365-1.045,0.946
																				c-0.491,0.567-0.615,1.199-0.753,1.192c-0.13,0.021-0.219-0.79,0.384-1.502
																				C254.74,285.747,255.554,285.696,255.556,285.828z"/>
																		</g>
																	</g>
																</g>
															</g>
														</g>
													</g>
												</g>
											</g>
										</g>
									</g>
								</g>
							</g>
						</g>
						<g>
							<g>
								<g>
									<g>
										<g>
											<g>
												<g>
													<g>
														<g>
															<g>
																<g>
																	<g>
																		<g>
																			<path style="fill:#455A64;" d="M257.216,289.397c-0.126,0.028-0.313-0.664,0.048-1.419
																				c0.356-0.758,1.01-1.051,1.068-0.936c0.077,0.114-0.346,0.518-0.633,1.142
																				C257.398,288.802,257.353,289.385,257.216,289.397z"/>
																		</g>
																	</g>
																</g>
															</g>
														</g>
													</g>
												</g>
											</g>
										</g>
									</g>
								</g>
							</g>
						</g>
						<g>
							<g>
								<g>
									<g>
										<g>
											<g>
												<g>
													<g>
														<g>
															<g>
																<g>
																	<g>
																		<g>
																			<path style="fill:#263238;" d="M252.371,281.235c-0.059,0.125-0.692-0.07-1.474-0.023
																				c-0.783,0.031-1.394,0.289-1.465,0.17c-0.079-0.101,0.519-0.608,1.441-0.65
																				C251.794,280.682,252.44,281.127,252.371,281.235z"/>
																		</g>
																	</g>
																</g>
															</g>
														</g>
													</g>
												</g>
											</g>
										</g>
									</g>
								</g>
							</g>
						</g>
					</g>
				</g>
			</g>
			<g>
				<g>
					<g>
						<g>
							<g>
								<g>
									<g>
										<g>
											<g>
												<g>
													<g>
														<g>
															<g>
																<g>
																	<g>
																		<path style="fill:#263238;" d="M296.445,270.066l-0.638,14.587c0,0,14.613,5.547,14.758,8.255l-28.328-0.221
																			l0.061-22.77L296.445,270.066z"/>
																	</g>
																</g>
															</g>
														</g>
													</g>
												</g>
											</g>
										</g>
									</g>
								</g>
							</g>
						</g>
						<g>
							<g>
								<g>
									<g>
										<g>
											<g>
												<g>
													<g>
														<g>
															<g>
																<g>
																	<g>
																		<path style="fill:#455A64;" d="M282.237,292.688l0.096-2.295l27.125,1.07c0,0,1.257,0.559,1.107,1.446
																			L282.237,292.688z"/>
																	</g>
																</g>
															</g>
														</g>
													</g>
												</g>
											</g>
										</g>
									</g>
								</g>
							</g>
						</g>
						<g>
							<g>
								<g>
									<g>
										<g>
											<g>
												<g>
													<g>
														<g>
															<g>
																<g>
																	<g>
																		<g>
																			<path style="fill:#455A64;" d="M296.268,284.513c-0.006,0.138-0.698,0.196-1.382,0.635
																				c-0.696,0.422-1.051,1.018-1.178,0.962c-0.127-0.028,0.085-0.853,0.923-1.371
																				C295.464,284.215,296.299,284.386,296.268,284.513z"/>
																		</g>
																	</g>
																</g>
															</g>
														</g>
													</g>
												</g>
											</g>
										</g>
									</g>
								</g>
							</g>
						</g>
						<g>
							<g>
								<g>
									<g>
										<g>
											<g>
												<g>
													<g>
														<g>
															<g>
																<g>
																	<g>
																		<g>
																			<path style="fill:#455A64;" d="M299.229,285.765c0.031,0.134-0.57,0.365-1.045,0.946
																				c-0.491,0.567-0.615,1.199-0.753,1.192c-0.13,0.021-0.22-0.79,0.384-1.502
																				C298.413,285.685,299.227,285.633,299.229,285.765z"/>
																		</g>
																	</g>
																</g>
															</g>
														</g>
													</g>
												</g>
											</g>
										</g>
									</g>
								</g>
							</g>
						</g>
						<g>
							<g>
								<g>
									<g>
										<g>
											<g>
												<g>
													<g>
														<g>
															<g>
																<g>
																	<g>
																		<g>
																			<path style="fill:#455A64;" d="M300.889,289.334c-0.126,0.028-0.313-0.664,0.048-1.419
																				c0.356-0.758,1.01-1.051,1.068-0.935c0.077,0.114-0.346,0.518-0.633,1.142
																				C301.071,288.739,301.027,289.322,300.889,289.334z"/>
																		</g>
																	</g>
																</g>
															</g>
														</g>
													</g>
												</g>
											</g>
										</g>
									</g>
								</g>
							</g>
						</g>
						<g>
							<g>
								<g>
									<g>
										<g>
											<g>
												<g>
													<g>
														<g>
															<g>
																<g>
																	<g>
																		<g>
																			<path style="fill:#263238;" d="M296.044,281.173c-0.059,0.125-0.692-0.07-1.474-0.023
																				c-0.783,0.031-1.394,0.289-1.465,0.17c-0.079-0.101,0.519-0.608,1.441-0.65
																				C295.467,280.619,296.113,281.064,296.044,281.173z"/>
																		</g>
																	</g>
																</g>
															</g>
														</g>
													</g>
												</g>
											</g>
										</g>
									</g>
								</g>
							</g>
						</g>
					</g>
				</g>
			</g>
			<g>
				<g>
					<path style="fill:#263238;" d="M242.585,161.365c-3.445,6.986-5.888,13.105-5.294,20.842c0.309,4.018,3.786,9.499,4.082,14.07
						c0.636,9.803,0.29,27.537-0.194,29.911c-1.089,5.336-3.888,18.31-3.888,34.673c0,16.364,0.275,21.719,0.275,21.719h16.209
						c0,0,1.119-31.112,6.122-49.108c4.647-16.716,9.997-42.131,9.997-53.159c0-11.028,0-14.941,0-14.941L242.585,161.365
						L242.585,161.365z"/>
				</g>
				<g>
					<path style="fill:#263238;" d="M277.452,163.814c0,0,20.339,50.692,20.339,64.66c0,3.239-1.428,54.106-1.428,54.106h-14.94
						c-0.684-20.385-3.369-33.912-2.242-53.057l-15.907-35.723v-35.662l13.301-1.938L277.452,163.814z"/>
				</g>
				<g>
					<g>
						<path style="fill:#455A64;" d="M269.895,190.274c0.031,0.007-0.045,0.456-0.208,1.26c-0.175,0.888-0.402,2.033-0.674,3.407
							c-0.579,2.962-1.348,6.898-2.199,11.25c-0.868,4.394-1.683,8.366-2.333,11.23c-0.324,1.432-0.607,2.587-0.818,3.381
							c-0.218,0.793-0.352,1.228-0.383,1.22c-0.031-0.007,0.045-0.456,0.208-1.259c0.175-0.887,0.402-2.033,0.674-3.407
							c0.579-2.961,1.348-6.898,2.199-11.251c0.868-4.392,1.682-8.364,2.332-11.229c0.324-1.432,0.607-2.587,0.818-3.382
							C269.73,190.701,269.864,190.267,269.895,190.274z"/>
					</g>
				</g>
			</g>
			<g>
				<g>
					<path style="fill:#FF725E;" d="M258.172,104.124c0.642-0.035,29.126,9.308,27.48,8.619l0.76-0.793l10.265-15.473l9.35,5.544
						c0,0-9.277,17.726-10.809,20.503c-1.373,2.488-4.024,4.483-7.557,4.477c-2.089-0.004-19.927-2.985-19.927-2.985
						L258.172,104.124z"/>
				</g>
				<g>
					<path style="fill:#E0E0E0;" d="M276.575,156.202l-22.535,2.579l-9.082-49.496l-5.191-7.513L241,96.316l15.537,5.907l0.29-2.33
						l8.126,10.473l5.782,6.124c3.054,3.234,5.205,7.255,5.971,11.637c0.378,2.164-1.832,7.228-1.832,7.228l1.406,12.577
						L276.575,156.202z"/>
				</g>
				<g style="opacity:0.3;">
					<path d="M240.919,193.238c0,0,22.677,1.727,27.687,0.682c0.924-0.193,1.724-0.52,2.411-0.921
						c2.296-1.338,3.676-3.826,3.844-6.478c0.308-4.854,0.099-14.184-0.029-17.045c-0.184-4.122-3.006-12.583-3.006-12.583
						l-31.998,33.014L240.919,193.238z"/>
				</g>
				<g>
					<path style="fill:#FF725E;" d="M233.657,106.052c-5.717,7.2-4.578,10.254-0.958,19.066c0.6,1.462,5.883,13.516,6.685,15.22
						c3.501,7.44,4.001,8.907,3.228,11.642c-4.561,16.149-10.131,36.657-10.131,36.657s34.487,4.702,37.414,1.638
						c2.927-3.064,3.158-22.566,2.216-31.118c-1.039-9.436-4.751-24.337-6.72-30.246c-1.185-3.554-3.298-11.893-7.966-17.695
						c-3.491-4.339-5.444-5.397-10.102-8.449l-7.527-3.9l-0.858,2.906L233.657,106.052z"/>
				</g>
				<g>
					<polygon style="fill:#E0E0E0;" points="277.365,94.292 278.784,90.351 288.739,95.18 287.129,99.654 					"/>
				</g>
				<g style="opacity:0.3;">
					<path d="M236.058,124.653c0,0,14.302,7.491,19.979,9.03c16.733,4.538,18.672-3.411,18.672-3.411l-8.752,0.367l-17.399-9.976
						L236.058,124.653z"/>
				</g>
				<g>
					<g>
						<g>
							<path style="fill:#FF725E;" d="M234.621,124.187c-0.246-0.188,29.907,10.537,36.05,8.604
								c6.143-1.933,8.223-9.62,9.893-13.629c3.312-7.953,7.616-21.47,7.616-21.47l-10.815-4.565l-11.12,22.04
								c0,0-22.038-9.939-24.107-10.543c-2.069-0.604-8.461-1.432-11.588,6.038C227.085,118.941,234.621,124.187,234.621,124.187z"
								/>
						</g>
						<g>
							<g>
								<path style="fill:#263238;" d="M234.621,124.187c0.014,0.006-0.088-0.039-0.227-0.146c-0.145-0.104-0.357-0.266-0.621-0.497
									c-0.528-0.46-1.289-1.181-2.086-2.277c-0.787-1.091-1.622-2.588-1.988-4.522c-0.205-0.962-0.2-2.023-0.101-3.14
									c0.121-0.546,0.192-1.125,0.368-1.69c0.212-0.553,0.344-1.159,0.637-1.713c0.485-1.153,1.211-2.279,2.141-3.302
									c0.94-1.016,2.177-1.86,3.612-2.343c1.43-0.495,3.038-0.611,4.64-0.376c0.402,0.055,0.802,0.146,1.203,0.254
									c0.395,0.135,0.785,0.278,1.164,0.435c0.768,0.305,1.538,0.631,2.32,0.961c6.247,2.665,13.185,5.761,20.663,9.111
									l-0.319,0.113c3.44-6.828,7.195-14.283,11.107-22.047l0.109-0.217l0.224,0.095c1.25,0.528,2.593,1.094,3.945,1.665
									c2.353,0.994,4.682,1.977,6.87,2.901l0.219,0.092l-0.073,0.225c-1.671,5.181-3.37,10.194-5.121,14.985
									c-0.873,2.394-1.781,4.732-2.714,6.988c-0.894,2.26-1.697,4.535-2.816,6.603c-0.547,1.038-1.164,2.03-1.888,2.924
									c-0.706,0.906-1.524,1.715-2.446,2.357c-0.904,0.678-1.925,1.121-2.982,1.444c-1.094,0.234-2.161,0.173-3.195,0.1
									c-4.134-0.403-7.852-1.379-11.231-2.24c-6.744-1.8-12.078-3.562-15.751-4.778
									C236.614,124.924,234.621,124.187,234.621,124.187c0.002-0.033,0.517,0.123,1.484,0.429
									c0.992,0.317,2.414,0.771,4.237,1.353c3.69,1.159,9.038,2.868,15.78,4.62c3.373,0.837,7.1,1.789,11.175,2.167
									c1.012,0.07,2.068,0.117,3.064-0.103c0.972-0.305,1.969-0.734,2.824-1.386c0.88-0.617,1.666-1.398,2.347-2.28
									c0.699-0.869,1.299-1.838,1.833-2.86c1.094-2.035,1.881-4.284,2.777-6.565c0.93-2.262,1.826-4.585,2.695-6.979
									c1.739-4.784,3.432-9.797,5.097-14.97l0.146,0.317c-2.188-0.923-4.517-1.906-6.871-2.899
									c-1.351-0.57-2.694-1.137-3.945-1.665l0.333-0.122c-3.921,7.759-7.686,15.209-11.134,22.033l-0.106,0.209l-0.214-0.096
									c-7.468-3.366-14.397-6.486-20.624-9.177c-0.781-0.328-1.55-0.651-2.307-0.969c-0.381-0.16-0.756-0.3-1.126-0.429
									c-0.38-0.105-0.764-0.194-1.151-0.249c-1.542-0.235-3.094-0.132-4.466,0.335c-1.378,0.454-2.569,1.254-3.485,2.229
									c-0.906,0.982-1.623,2.071-2.108,3.198c-0.293,0.541-0.425,1.13-0.638,1.669c-0.178,0.551-0.25,1.114-0.376,1.645
									c-0.106,1.086-0.124,2.121,0.066,3.063c0.334,1.892,1.132,3.377,1.889,4.47c0.767,1.097,1.504,1.832,2.01,2.309
									C234.25,123.858,234.463,124.047,234.621,124.187z"/>
							</g>
						</g>
					</g>
				</g>
				<g>
					<g>
						<polygon style="fill:#FF725E;" points="242.259,167.847 245.053,162.19 264.6,162.534 262.428,168.385 						"/>
					</g>
					<g>
						<g>
							<path style="fill:#263238;" d="M242.259,167.847c0.012-0.007,0.158-0.01,0.426-0.011c0.311,0.002,0.695,0.004,1.162,0.007
								c1.056,0.013,2.49,0.031,4.257,0.052c3.608,0.049,8.602,0.122,14.33,0.265l-0.217,0.146c0.659-1.781,1.355-3.66,2.069-5.59
								c0.033-0.089,0.066-0.177,0.098-0.263l0.212,0.311c-7.868-0.139-14.897-0.294-19.545-0.425l0.137-0.083
								c-0.882,1.7-1.593,3.071-2.113,4.073c-0.239,0.451-0.433,0.819-0.589,1.115C242.348,167.701,242.271,167.839,242.259,167.847
								c-0.012,0.007,0.041-0.117,0.152-0.364c0.135-0.294,0.302-0.658,0.508-1.107c0.492-1.046,1.165-2.477,2-4.252l0.039-0.084
								l0.097,0.001c4.65,0.032,11.68,0.125,19.548,0.262l0.326,0.006l-0.113,0.306c-0.032,0.085-0.065,0.174-0.098,0.263
								c-0.719,1.929-1.418,3.807-2.081,5.586l-0.056,0.151l-0.161-0.005c-5.842-0.166-10.932-0.362-14.516-0.505
								c-1.737-0.072-3.147-0.13-4.186-0.173c-0.443-0.021-0.807-0.039-1.102-0.053C242.37,167.865,242.247,167.854,242.259,167.847
								z"/>
						</g>
					</g>
				</g>
				<g>
					<g>
						<path style="fill:#263238;" d="M264.543,151.62c-0.008,0.127-4.717-0.071-10.517-0.442
							c-5.802-0.372-10.497-0.776-10.489-0.903c0.008-0.127,4.716,0.071,10.518,0.442
							C259.855,151.089,264.551,151.493,264.543,151.62z"/>
					</g>
				</g>
				<g>
					<polygon style="fill:#E0E0E0;" points="297.263,96.89 299.149,93.705 306.651,98.085 305.192,101.541 					"/>
				</g>
				<g>
					<g>
						<path style="fill:#263238;" d="M287.606,119.294c-0.077,0.081-1.2-1.088-1.831-2.942c-0.646-1.85-0.48-3.463-0.369-3.446
							c0.134-0.003,0.171,1.54,0.789,3.302C286.793,117.975,287.714,119.213,287.606,119.294z"/>
					</g>
				</g>
				<g>
					<g>
						<path style="fill:#263238;" d="M267.53,121.627c-0.08,0.085-1.185-1.224-1.514-3.243c-0.35-2.017,0.266-3.614,0.369-3.56
							c0.138,0.03-0.247,1.589,0.086,3.484C266.777,120.207,267.651,121.554,267.53,121.627z"/>
					</g>
				</g>
				<g style="opacity:0.3;">
					<polygon points="243.826,167.88 243.48,169.592 263.722,170.164 264.6,162.534 262.428,168.385 					"/>
				</g>
				<g>
					<g>
						<path style="fill:#263238;" d="M259.779,103.767c0.06-0.009,0.245,0.795,0.5,2.137l0.072,0.378l-0.323-0.227
							c-0.782-0.549-1.792-1.278-2.923-2.111l0.352-0.143c-0.106,0.696-0.219,1.434-0.336,2.201
							c-0.073,0.458-0.145,0.907-0.213,1.339l-0.049,0.305l-0.276-0.135c-1.7-0.834-3.188-1.586-4.243-2.142
							c-1.056-0.556-1.68-0.917-1.656-0.968c0.025-0.051,0.695,0.215,1.786,0.699c1.091,0.484,2.603,1.185,4.311,2.002l-0.324,0.17
							c0.067-0.433,0.136-0.881,0.207-1.34c0.123-0.765,0.242-1.503,0.354-2.198l0.059-0.367l0.293,0.224
							c1.117,0.852,2.099,1.616,2.846,2.213l-0.251,0.151C259.793,104.599,259.718,103.777,259.779,103.767z"/>
					</g>
				</g>
			</g>
			<g>
				<g>
					<path style="fill:#455A64;" d="M296.363,282.636c0,0.144-3.314,0.26-7.402,0.26c-4.089,0-7.403-0.117-7.403-0.26
						s3.314-0.26,7.403-0.26C293.049,282.376,296.363,282.493,296.363,282.636z"/>
				</g>
			</g>
			<g>
				<g>
					<path style="fill:#455A64;" d="M253.095,282.636c0,0.144-3.522,0.26-7.866,0.26c-4.345,0-7.867-0.117-7.867-0.26
						s3.521-0.26,7.867-0.26C249.573,282.376,253.095,282.493,253.095,282.636z"/>
				</g>
			</g>
		</g>
	</g>
</g>
<g id="Clouds">
	<g>
		<g>
			<g>
				<g>
					<g>
						<path style="fill:#FFFFFF;" d="M218.521,338.826c0.617-4.479-5.704-8.163-10.453-8.546c-2.265-0.183-4.617,0.164-6.763-0.584
							c-4.649-1.62-6.506-7.626-11.042-9.539c-3.391-1.43-7.296-0.157-10.583,1.498s-6.537,3.737-10.21,3.972
							c-3.195,0.204-6.664-0.98-9.46,0.58c-2.083,1.163-3.174,3.563-5.094,4.979c-1.878,1.385-4.328,1.679-6.659,1.806
							c-2.331,0.127-4.743,0.15-6.865,1.122c-2.122,0.972-3.877,3.216-3.437,5.507L218.521,338.826z"/>
					</g>
					<g>
						<g>
							<path style="fill:#263238;" d="M218.521,338.825c0,0-0.128,0.013-0.393,0.021c-0.285,0.007-0.679,0.016-1.185,0.029
								c-1.069,0.018-2.614,0.045-4.599,0.079c-4.035,0.056-9.853,0.137-17.073,0.238c-14.526,0.167-34.687,0.399-57.313,0.659
								l-0.191,0.002l-0.037-0.189c-0.258-1.311,0.21-2.704,1.04-3.762c0.827-1.072,2.019-1.878,3.316-2.314
								c2.994-1.019,6.105-0.588,8.979-1.122c1.435-0.251,2.833-0.741,3.936-1.636c1.113-0.89,1.936-2.097,2.922-3.169
								c0.494-0.535,1.027-1.052,1.653-1.451c0.626-0.396,1.318-0.681,2.03-0.838c1.432-0.308,2.865-0.205,4.243-0.102
								c1.38,0.106,2.739,0.245,4.059,0.097c1.322-0.136,2.599-0.514,3.811-1.001c2.435-0.975,4.628-2.348,6.924-3.396
								c2.285-1.035,4.719-1.772,7.132-1.594c1.195,0.098,2.362,0.43,3.37,1.01c1.011,0.574,1.866,1.332,2.629,2.123
								c1.525,1.59,2.727,3.318,4.134,4.715c1.375,1.417,3.048,2.425,4.815,2.669c1.758,0.277,3.467,0.125,5.063,0.239
								c1.606,0.1,3.055,0.523,4.325,1.027c1.271,0.512,2.364,1.138,3.273,1.803c0.904,0.673,1.604,1.404,2.116,2.103
								c0.522,0.698,0.787,1.401,0.946,1.969c0.124,0.579,0.166,1.033,0.12,1.344C218.539,338.684,218.521,338.825,218.521,338.825
								s-0.005-0.167-0.002-0.464c0.025-0.29-0.029-0.739-0.166-1.304c-0.295-1.127-1.267-2.65-3.078-3.951
								c-0.903-0.645-1.99-1.25-3.247-1.743c-1.257-0.485-2.688-0.889-4.26-0.974c-1.572-0.102-3.281,0.066-5.093-0.207
								c-1.829-0.238-3.596-1.292-4.999-2.728c-1.441-1.418-2.655-3.145-4.159-4.699c-0.752-0.773-1.585-1.503-2.554-2.048
								c-0.965-0.55-2.073-0.859-3.218-0.951c-2.31-0.164-4.686,0.554-6.935,1.582c-2.258,1.036-4.456,2.422-6.934,3.422
								c-1.235,0.499-2.55,0.893-3.924,1.038c-1.378,0.156-2.764,0.014-4.139-0.088c-1.372-0.102-2.768-0.193-4.111,0.099
								c-0.668,0.149-1.305,0.413-1.883,0.779c-0.579,0.369-1.085,0.858-1.564,1.378c-0.959,1.04-1.788,2.269-2.97,3.22
								c-1.181,0.96-2.663,1.474-4.14,1.732c-2.967,0.542-6.059,0.125-8.908,1.106c-1.233,0.415-2.33,1.163-3.103,2.16
								c-0.77,0.985-1.18,2.238-0.953,3.393l-0.228-0.186c22.567-0.186,42.674-0.351,57.162-0.47
								c7.241-0.042,13.076-0.076,17.123-0.1c2.005-0.005,3.566-0.009,4.647-0.012c0.519,0.002,0.922,0.004,1.213,0.005
								C218.373,338.815,218.521,338.825,218.521,338.825z"/>
						</g>
					</g>
				</g>
			</g>
		</g>
		<g>
			<g>
				<g>
					<g>
						<path style="fill:#FFFFFF;" d="M418.401,401.621c0.616-4.479-5.704-8.163-10.453-8.545c-2.265-0.183-4.617,0.164-6.763-0.584
							c-4.649-1.62-6.506-7.626-11.042-9.54c-3.391-1.43-7.296-0.157-10.583,1.498c-3.288,1.655-6.537,3.737-10.21,3.972
							c-3.195,0.204-6.664-0.98-9.46,0.58c-2.083,1.163-3.174,3.563-5.094,4.979c-1.878,1.385-4.328,1.679-6.659,1.805
							c-2.33,0.127-4.743,0.15-6.865,1.122c-2.122,0.972-3.878,3.215-3.437,5.507L418.401,401.621z"/>
					</g>
					<g style="opacity:0.2;">
						<path d="M375.153,408.282c-3.195,0.204-6.664-0.98-9.46,0.58c-2.083,1.163-3.174,3.563-5.094,4.979
							c-1.878,1.385-4.328,1.679-6.659,1.806c-2.33,0.127-4.743,0.15-6.865,1.122c-2.122,0.972-3.878,3.216-3.437,5.507
							l49.006-0.484l-2.25-5.867l-11.083-7.6L375.153,408.282z"/>
					</g>
					<g>
						<g>
							<path style="fill:#263238;" d="M418.401,401.621c0,0-0.128,0.013-0.393,0.021c-0.285,0.007-0.679,0.016-1.185,0.029
								c-1.07,0.018-2.614,0.045-4.599,0.079c-4.035,0.056-9.853,0.137-17.073,0.237c-14.526,0.167-34.687,0.399-57.313,0.659
								l-0.191,0.002l-0.037-0.189c-0.259-1.31,0.21-2.703,1.04-3.762c0.827-1.072,2.019-1.878,3.316-2.314
								c2.994-1.019,6.105-0.588,8.979-1.122c1.435-0.251,2.833-0.741,3.936-1.636c1.113-0.89,1.936-2.097,2.922-3.169
								c0.494-0.535,1.027-1.052,1.653-1.45c0.626-0.396,1.318-0.681,2.03-0.838c1.431-0.308,2.865-0.205,4.243-0.102
								c1.38,0.106,2.739,0.245,4.059,0.097c1.322-0.136,2.599-0.514,3.811-1.001c2.435-0.975,4.628-2.348,6.924-3.396
								c2.285-1.035,4.719-1.772,7.132-1.594c1.195,0.099,2.362,0.43,3.37,1.01c1.011,0.574,1.866,1.332,2.629,2.123
								c1.524,1.591,2.727,3.319,4.134,4.716c1.375,1.416,3.048,2.425,4.815,2.669c1.758,0.277,3.468,0.124,5.063,0.239
								c1.606,0.1,3.056,0.523,4.325,1.027c1.27,0.512,2.364,1.138,3.272,1.803c0.905,0.673,1.604,1.404,2.116,2.103
								c0.522,0.699,0.787,1.401,0.946,1.969c0.124,0.579,0.166,1.033,0.12,1.344C418.42,401.48,418.401,401.621,418.401,401.621
								s-0.005-0.167-0.002-0.464c0.024-0.29-0.029-0.739-0.166-1.304c-0.295-1.127-1.268-2.65-3.078-3.951
								c-0.903-0.645-1.99-1.25-3.247-1.743c-1.257-0.485-2.688-0.889-4.26-0.974c-1.572-0.102-3.281,0.066-5.093-0.206
								c-1.829-0.238-3.596-1.292-4.999-2.728c-1.44-1.417-2.655-3.145-4.159-4.699c-0.752-0.773-1.586-1.503-2.554-2.048
								c-0.965-0.55-2.073-0.859-3.218-0.951c-2.31-0.164-4.686,0.554-6.935,1.582c-2.258,1.036-4.456,2.422-6.934,3.421
								c-1.235,0.499-2.55,0.893-3.924,1.038c-1.378,0.156-2.764,0.014-4.139-0.088c-1.372-0.102-2.768-0.193-4.111,0.099
								c-0.668,0.149-1.305,0.413-1.883,0.779c-0.579,0.369-1.085,0.858-1.564,1.378c-0.959,1.04-1.788,2.269-2.97,3.22
								c-1.181,0.96-2.663,1.474-4.141,1.732c-2.967,0.542-6.059,0.125-8.908,1.106c-1.233,0.415-2.33,1.163-3.103,2.16
								c-0.77,0.985-1.18,2.238-0.953,3.393l-0.228-0.187c22.567-0.186,42.674-0.351,57.162-0.47
								c7.241-0.042,13.076-0.076,17.123-0.1c2.005-0.005,3.567-0.009,4.647-0.012c0.519,0.002,0.922,0.004,1.213,0.005
								C418.253,401.611,418.401,401.621,418.401,401.621z"/>
						</g>
					</g>
				</g>
			</g>
		</g>
		<g style="opacity:0.2;">
			<path d="M224.842,351.814c-2.265-0.183-4.617,0.164-6.763-0.584c-4.649-1.62-6.506-7.626-11.042-9.539
				c-3.391-1.43-7.296-0.157-10.583,1.498c-3.288,1.655-5.029,3.537-8.702,3.772l-19.768,13.918l67.312-0.519
				C235.911,355.88,229.591,352.196,224.842,351.814z"/>
		</g>
	</g>
	<g>
		<g>
			<g>
				<g>
					<path style="fill:#FFFFFF;" d="M213.63,137.463c0.495-3.598-4.583-6.558-8.399-6.866c-1.82-0.147-3.71,0.132-5.434-0.469
						c-3.735-1.302-5.227-6.127-8.871-7.664c-2.725-1.149-5.862-0.126-8.503,1.203c-2.641,1.329-5.252,3.002-8.203,3.191
						c-2.567,0.164-5.354-0.788-7.6,0.466c-1.673,0.935-2.55,2.863-4.093,4c-1.509,1.113-3.478,1.349-5.35,1.451
						c-1.872,0.102-3.811,0.121-5.516,0.901c-1.705,0.781-3.115,2.583-2.762,4.425L213.63,137.463z"/>
				</g>
				<g>
					<g>
						<path style="fill:#263238;" d="M213.63,137.463c0,0-0.103,0.01-0.316,0.017c-0.229,0.006-0.545,0.013-0.952,0.023
							c-0.859,0.015-2.1,0.036-3.695,0.064c-3.242,0.045-7.917,0.11-13.717,0.191c-11.671,0.134-27.869,0.321-46.048,0.53
							l-0.154,0.002l-0.03-0.152c-0.208-1.053,0.169-2.172,0.835-3.023c0.665-0.861,1.622-1.509,2.664-1.859
							c2.406-0.819,4.905-0.473,7.214-0.902c1.153-0.201,2.276-0.595,3.162-1.315c0.894-0.715,1.556-1.685,2.348-2.546
							c0.397-0.43,0.825-0.845,1.328-1.165c0.503-0.318,1.059-0.547,1.631-0.673c1.15-0.247,2.302-0.165,3.409-0.082
							c1.108,0.085,2.2,0.197,3.261,0.078c1.062-0.11,2.088-0.413,3.062-0.805c1.956-0.783,3.718-1.887,5.563-2.729
							c1.836-0.832,3.792-1.424,5.73-1.281c0.96,0.079,1.898,0.345,2.708,0.811c0.812,0.462,1.499,1.07,2.112,1.706
							c1.225,1.278,2.191,2.666,3.321,3.789c1.105,1.138,2.449,1.948,3.869,2.145c1.413,0.223,2.786,0.1,4.067,0.192
							c1.29,0.08,2.455,0.42,3.475,0.825c1.021,0.412,1.9,0.914,2.629,1.449c0.727,0.541,1.289,1.128,1.7,1.69
							c0.419,0.561,0.632,1.125,0.76,1.582c0.1,0.465,0.133,0.83,0.097,1.079C213.644,137.35,213.63,137.463,213.63,137.463
							s-0.004-0.135-0.002-0.373c0.02-0.233-0.023-0.594-0.133-1.047c-0.237-0.905-1.018-2.129-2.473-3.175
							c-0.726-0.518-1.599-1.005-2.609-1.401c-1.01-0.39-2.159-0.714-3.422-0.782c-1.263-0.082-2.636,0.053-4.092-0.166
							c-1.469-0.191-2.889-1.038-4.016-2.192c-1.157-1.139-2.133-2.527-3.342-3.775c-0.604-0.621-1.274-1.208-2.052-1.646
							c-0.776-0.442-1.665-0.69-2.586-0.764c-1.856-0.132-3.765,0.445-5.572,1.271c-1.814,0.833-3.58,1.946-5.571,2.749
							c-0.992,0.401-2.049,0.718-3.153,0.834c-1.107,0.126-2.221,0.011-3.325-0.071c-1.102-0.082-2.224-0.155-3.303,0.079
							c-0.537,0.119-1.049,0.332-1.513,0.626c-0.465,0.296-0.871,0.689-1.256,1.107c-0.77,0.836-1.437,1.823-2.386,2.587
							c-0.949,0.771-2.139,1.184-3.327,1.392c-2.384,0.435-4.868,0.101-7.157,0.889c-0.991,0.334-1.872,0.934-2.493,1.736
							c-0.619,0.792-0.948,1.798-0.766,2.726l-0.183-0.15c18.131-0.149,34.286-0.282,45.926-0.378
							c5.818-0.034,10.506-0.061,13.757-0.08c1.611-0.004,2.866-0.008,3.734-0.01c0.417,0.002,0.74,0.003,0.975,0.004
							C213.511,137.455,213.63,137.463,213.63,137.463z"/>
					</g>
				</g>
			</g>
		</g>
	</g>
	<g>
		<g>
			<g>
				<g>
					<path style="fill:#FFFFFF;" d="M105.961,269.569c0.396-2.878-3.666-5.246-6.719-5.492c-1.456-0.117-2.968,0.105-4.347-0.375
						c-2.988-1.041-4.181-4.901-7.097-6.131c-2.18-0.919-4.689-0.101-6.802,0.962c-2.113,1.063-4.201,2.402-6.562,2.553
						c-2.053,0.131-4.283-0.63-6.08,0.373c-1.339,0.747-2.04,2.29-3.274,3.2c-1.207,0.89-2.782,1.079-4.28,1.16
						c-1.498,0.081-3.049,0.096-4.412,0.721c-1.364,0.624-2.492,2.067-2.209,3.54L105.961,269.569z"/>
				</g>
				<g>
					<g>
						<path style="fill:#263238;" d="M105.961,269.569c0,0-0.082,0.008-0.253,0.013c-0.183,0.004-0.436,0.01-0.762,0.018
							c-0.687,0.012-1.68,0.029-2.956,0.051c-2.593,0.036-6.333,0.088-10.973,0.153c-9.336,0.107-22.294,0.257-36.836,0.424
							l-0.123,0.001l-0.024-0.121c-0.166-0.842,0.135-1.738,0.668-2.418c0.532-0.689,1.298-1.207,2.131-1.487
							c1.924-0.655,3.924-0.378,5.771-0.721c0.923-0.161,1.821-0.476,2.53-1.052c0.715-0.572,1.244-1.348,1.878-2.037
							c0.318-0.344,0.66-0.676,1.063-0.932c0.402-0.255,0.847-0.438,1.305-0.539c0.92-0.198,1.842-0.132,2.727-0.065
							c0.887,0.068,1.76,0.158,2.609,0.062c0.849-0.088,1.67-0.331,2.45-0.644c1.565-0.626,2.974-1.509,4.45-2.183
							c1.469-0.665,3.033-1.139,4.584-1.025c0.768,0.063,1.518,0.276,2.166,0.649c0.65,0.369,1.199,0.856,1.69,1.365
							c0.98,1.022,1.753,2.133,2.657,3.031c0.884,0.91,1.959,1.558,3.095,1.716c1.13,0.178,2.229,0.08,3.254,0.154
							c1.032,0.064,1.964,0.336,2.78,0.66c0.816,0.329,1.52,0.731,2.103,1.159c0.581,0.432,1.031,0.902,1.36,1.352
							c0.336,0.449,0.506,0.9,0.608,1.266c0.08,0.372,0.106,0.664,0.077,0.864C105.972,269.478,105.961,269.569,105.961,269.569
							s-0.003-0.108-0.001-0.298c0.016-0.187-0.019-0.475-0.107-0.838c-0.19-0.724-0.815-1.703-1.978-2.54
							c-0.581-0.414-1.279-0.803-2.087-1.12c-0.808-0.312-1.727-0.571-2.738-0.626c-1.01-0.066-2.109,0.042-3.273-0.133
							c-1.176-0.153-2.311-0.83-3.213-1.753c-0.926-0.911-1.706-2.021-2.673-3.02c-0.484-0.497-1.019-0.966-1.642-1.316
							c-0.62-0.354-1.332-0.552-2.068-0.611c-1.485-0.105-3.012,0.356-4.457,1.017c-1.451,0.666-2.864,1.557-4.457,2.199
							c-0.794,0.321-1.639,0.574-2.522,0.667c-0.886,0.1-1.777,0.009-2.66-0.057c-0.882-0.066-1.779-0.124-2.642,0.063
							c-0.429,0.096-0.839,0.265-1.21,0.501c-0.372,0.237-0.697,0.552-1.005,0.886c-0.616,0.669-1.149,1.458-1.909,2.07
							c-0.759,0.617-1.712,0.947-2.661,1.113c-1.907,0.348-3.894,0.081-5.725,0.711c-0.792,0.267-1.497,0.748-1.995,1.389
							c-0.495,0.633-0.758,1.438-0.612,2.18l-0.147-0.12c14.504-0.119,27.427-0.226,36.739-0.302
							c4.654-0.027,8.404-0.049,11.005-0.064c1.289-0.003,2.292-0.006,2.987-0.008c0.333,0.001,0.592,0.002,0.78,0.003
							C105.866,269.563,105.961,269.569,105.961,269.569z"/>
					</g>
				</g>
			</g>
		</g>
	</g>
	<g>
		<g>
			<g>
				<g>
					<path style="fill:#FFFFFF;" d="M455.918,257.405c0.444-3.227-4.11-5.882-7.533-6.158c-1.632-0.132-3.327,0.118-4.873-0.421
						c-3.35-1.168-4.688-5.495-7.957-6.874c-2.444-1.031-5.257-0.113-7.626,1.079c-2.369,1.192-4.71,2.693-7.357,2.862
						c-2.302,0.147-4.802-0.706-6.816,0.418c-1.501,0.838-2.287,2.568-3.671,3.588c-1.353,0.998-3.119,1.21-4.798,1.301
						c-1.679,0.091-3.418,0.108-4.947,0.808c-1.529,0.7-2.794,2.317-2.477,3.969L455.918,257.405z"/>
				</g>
				<g>
					<g>
						<path style="fill:#263238;" d="M455.918,257.405c0,0-0.092,0.009-0.283,0.015c-0.205,0.005-0.489,0.012-0.854,0.02
							c-0.771,0.013-1.884,0.032-3.314,0.057c-2.907,0.04-7.1,0.099-12.302,0.171c-10.467,0.12-24.994,0.288-41.299,0.475
							l-0.138,0.001l-0.027-0.136c-0.186-0.944,0.151-1.948,0.749-2.711c0.596-0.772,1.455-1.353,2.389-1.667
							c2.158-0.734,4.399-0.424,6.47-0.809c1.034-0.181,2.042-0.534,2.836-1.179c0.802-0.641,1.395-1.511,2.105-2.284
							c0.356-0.386,0.74-0.758,1.191-1.045c0.451-0.286,0.95-0.491,1.463-0.604c1.031-0.222,2.065-0.148,3.058-0.073
							c0.994,0.076,1.973,0.176,2.924,0.07c0.952-0.098,1.873-0.37,2.746-0.722c1.754-0.702,3.335-1.692,4.99-2.447
							c1.647-0.746,3.401-1.277,5.139-1.149c0.861,0.071,1.702,0.309,2.428,0.727c0.728,0.414,1.344,0.96,1.894,1.53
							c1.099,1.146,1.965,2.391,2.979,3.398c0.991,1.021,2.196,1.747,3.47,1.924c1.267,0.2,2.499,0.09,3.648,0.172
							c1.157,0.072,2.202,0.377,3.116,0.74c0.915,0.369,1.704,0.82,2.358,1.299c0.652,0.485,1.156,1.011,1.525,1.516
							c0.376,0.503,0.567,1.009,0.681,1.419c0.09,0.417,0.119,0.745,0.087,0.968C455.931,257.303,455.918,257.405,455.918,257.405
							s-0.003-0.121-0.002-0.334c0.018-0.209-0.021-0.533-0.12-0.939c-0.213-0.812-0.913-1.909-2.218-2.847
							c-0.651-0.464-1.434-0.901-2.34-1.256c-0.906-0.35-1.936-0.64-3.069-0.702c-1.133-0.074-2.364,0.047-3.67-0.149
							c-1.318-0.172-2.591-0.931-3.602-1.966c-1.038-1.021-1.913-2.266-2.997-3.386c-0.542-0.557-1.142-1.083-1.84-1.476
							c-0.696-0.396-1.494-0.619-2.319-0.685c-1.665-0.118-3.376,0.399-4.997,1.14c-1.627,0.747-3.211,1.745-4.997,2.465
							c-0.89,0.36-1.838,0.644-2.828,0.748c-0.993,0.113-1.992,0.01-2.982-0.064c-0.988-0.074-1.995-0.139-2.962,0.071
							c-0.481,0.107-0.94,0.298-1.357,0.562c-0.417,0.266-0.782,0.618-1.127,0.993c-0.691,0.75-1.289,1.635-2.14,2.32
							c-0.851,0.692-1.919,1.062-2.983,1.248c-2.138,0.391-4.366,0.09-6.419,0.797c-0.888,0.299-1.679,0.838-2.236,1.557
							c-0.555,0.71-0.85,1.612-0.686,2.445l-0.164-0.134c16.261-0.134,30.75-0.253,41.19-0.339c5.217-0.03,9.422-0.055,12.338-0.072
							c1.445-0.004,2.57-0.007,3.349-0.009c0.374,0.001,0.664,0.003,0.874,0.004C455.811,257.398,455.918,257.405,455.918,257.405z"
							/>
					</g>
				</g>
			</g>
		</g>
	</g>
	<g>
		<g>
			<g>
				<g>
					<path style="fill:#FFFFFF;" d="M399.674,42.468c0.331-2.403-3.06-4.379-5.608-4.584c-1.215-0.098-2.477,0.088-3.628-0.313
						c-2.494-0.869-3.49-4.091-5.924-5.118c-1.819-0.767-3.914-0.084-5.678,0.803c-1.764,0.888-3.507,2.005-5.477,2.131
						c-1.714,0.11-3.575-0.526-5.075,0.311c-1.117,0.624-1.703,1.912-2.733,2.671c-1.008,0.743-2.322,0.901-3.572,0.969
						c-1.25,0.068-2.545,0.081-3.683,0.602c-1.138,0.521-2.08,1.725-1.844,2.955L399.674,42.468z"/>
				</g>
				<g>
					<g>
						<path style="fill:#263238;" d="M399.674,42.468c0,0-0.069,0.007-0.211,0.011c-0.153,0.004-0.364,0.009-0.636,0.015
							c-0.574,0.01-1.403,0.024-2.467,0.043c-2.165,0.03-5.286,0.073-9.159,0.127c-7.793,0.09-18.609,0.214-30.747,0.354
							l-0.103,0.001l-0.02-0.101c-0.139-0.703,0.113-1.45,0.558-2.018c0.444-0.575,1.083-1.007,1.779-1.241
							c1.606-0.547,3.275-0.315,4.817-0.602c0.77-0.134,1.52-0.397,2.111-0.878c0.597-0.477,1.039-1.125,1.568-1.7
							c0.265-0.287,0.551-0.564,0.887-0.778c0.336-0.213,0.707-0.365,1.089-0.45c0.768-0.165,1.537-0.11,2.276-0.055
							c0.74,0.057,1.469,0.132,2.177,0.052c0.709-0.073,1.394-0.276,2.045-0.537c1.306-0.523,2.483-1.26,3.715-1.822
							c1.226-0.555,2.532-0.951,3.826-0.855c0.641,0.053,1.267,0.23,1.808,0.542c0.542,0.308,1.001,0.715,1.41,1.139
							c0.818,0.853,1.463,1.78,2.217,2.53c0.738,0.76,1.635,1.301,2.583,1.432c0.943,0.149,1.86,0.067,2.716,0.128
							c0.861,0.054,1.639,0.28,2.32,0.551c0.682,0.275,1.268,0.61,1.756,0.967c0.485,0.361,0.861,0.753,1.135,1.128
							c0.28,0.375,0.422,0.751,0.507,1.056c0.067,0.31,0.089,0.554,0.065,0.721C399.684,42.392,399.674,42.468,399.674,42.468
							s-0.003-0.09-0.001-0.249c0.013-0.156-0.015-0.397-0.089-0.699c-0.158-0.604-0.68-1.421-1.651-2.12
							c-0.485-0.346-1.067-0.671-1.742-0.935c-0.674-0.26-1.442-0.477-2.285-0.522c-0.843-0.055-1.76,0.035-2.732-0.111
							c-0.981-0.128-1.929-0.693-2.682-1.463c-0.773-0.761-1.424-1.687-2.231-2.521c-0.404-0.415-0.851-0.806-1.37-1.099
							c-0.518-0.295-1.112-0.461-1.727-0.51c-1.239-0.088-2.514,0.297-3.72,0.849c-1.212,0.556-2.391,1.299-3.72,1.836
							c-0.663,0.268-1.368,0.479-2.105,0.557c-0.739,0.084-1.483,0.007-2.22-0.048c-0.736-0.055-1.485-0.104-2.206,0.053
							c-0.358,0.08-0.7,0.222-1.01,0.418c-0.311,0.198-0.582,0.46-0.839,0.739c-0.514,0.558-0.959,1.217-1.593,1.727
							c-0.633,0.515-1.429,0.791-2.221,0.929c-1.592,0.291-3.25,0.067-4.779,0.593c-0.661,0.223-1.25,0.624-1.665,1.159
							c-0.413,0.528-0.633,1.2-0.511,1.82l-0.122-0.1c12.107-0.1,22.894-0.188,30.666-0.252c3.884-0.023,7.015-0.041,9.186-0.054
							c1.076-0.003,1.913-0.005,2.493-0.007c0.278,0.001,0.494,0.002,0.651,0.002C399.595,42.463,399.674,42.468,399.674,42.468z"/>
					</g>
				</g>
			</g>
		</g>
	</g>
	<g>
		<g>
			<g>
				<g>
					<path style="fill:#FFFFFF;" d="M107.7,397.323c0.331-2.403-3.06-4.379-5.608-4.584c-1.215-0.098-2.477,0.088-3.628-0.313
						c-2.494-0.869-3.49-4.091-5.924-5.118c-1.819-0.767-3.914-0.084-5.678,0.803c-1.764,0.888-3.507,2.005-5.477,2.131
						c-1.714,0.11-3.575-0.526-5.075,0.311c-1.117,0.624-1.703,1.912-2.733,2.671c-1.008,0.743-2.322,0.901-3.572,0.969
						c-1.25,0.068-2.545,0.081-3.683,0.602c-1.138,0.521-2.08,1.725-1.844,2.955L107.7,397.323z"/>
				</g>
				<g>
					<g>
						<path style="fill:#263238;" d="M107.7,397.323c0,0-0.069,0.007-0.211,0.011c-0.153,0.004-0.364,0.009-0.636,0.015
							c-0.574,0.01-1.403,0.024-2.467,0.043c-2.165,0.03-5.286,0.073-9.159,0.127c-7.793,0.09-18.609,0.214-30.747,0.354
							l-0.103,0.001l-0.02-0.101c-0.139-0.703,0.113-1.45,0.558-2.018c0.444-0.575,1.083-1.008,1.779-1.241
							c1.606-0.547,3.275-0.316,4.817-0.602c0.77-0.134,1.52-0.397,2.112-0.878c0.597-0.477,1.039-1.125,1.567-1.7
							c0.265-0.287,0.551-0.564,0.887-0.778c0.336-0.213,0.707-0.365,1.089-0.449c0.768-0.165,1.537-0.11,2.276-0.055
							c0.74,0.057,1.469,0.132,2.177,0.052c0.709-0.073,1.394-0.276,2.045-0.537c1.306-0.523,2.483-1.26,3.715-1.822
							c1.226-0.555,2.532-0.951,3.826-0.855c0.641,0.053,1.267,0.23,1.808,0.542c0.542,0.308,1.001,0.715,1.41,1.139
							c0.818,0.853,1.463,1.78,2.218,2.53c0.738,0.76,1.635,1.301,2.583,1.432c0.943,0.149,1.86,0.067,2.716,0.128
							c0.861,0.053,1.639,0.28,2.32,0.551c0.682,0.275,1.268,0.61,1.756,0.967c0.485,0.361,0.861,0.753,1.135,1.128
							c0.28,0.375,0.422,0.751,0.507,1.056c0.067,0.31,0.089,0.554,0.064,0.721C107.71,397.247,107.7,397.323,107.7,397.323
							s-0.002-0.09-0.001-0.249c0.013-0.156-0.015-0.397-0.089-0.699c-0.158-0.604-0.68-1.421-1.651-2.12
							c-0.485-0.346-1.067-0.671-1.742-0.935c-0.674-0.26-1.442-0.477-2.285-0.522c-0.843-0.055-1.76,0.035-2.732-0.111
							c-0.981-0.128-1.929-0.693-2.682-1.463c-0.773-0.76-1.424-1.687-2.231-2.521c-0.404-0.415-0.851-0.806-1.37-1.099
							c-0.518-0.295-1.112-0.461-1.726-0.51c-1.239-0.088-2.514,0.297-3.72,0.849c-1.211,0.556-2.39,1.299-3.72,1.836
							c-0.663,0.268-1.368,0.479-2.105,0.557c-0.739,0.084-1.483,0.008-2.22-0.048c-0.736-0.055-1.485-0.104-2.205,0.053
							c-0.358,0.08-0.7,0.222-1.01,0.418c-0.311,0.198-0.582,0.46-0.839,0.739c-0.514,0.558-0.959,1.217-1.593,1.728
							c-0.633,0.515-1.429,0.791-2.221,0.929c-1.592,0.291-3.251,0.067-4.779,0.594c-0.661,0.223-1.25,0.624-1.665,1.159
							c-0.413,0.529-0.633,1.2-0.511,1.82l-0.122-0.1c12.107-0.1,22.894-0.188,30.666-0.252c3.884-0.023,7.015-0.041,9.186-0.054
							c1.076-0.003,1.913-0.005,2.493-0.007c0.278,0.001,0.494,0.002,0.651,0.003C107.621,397.318,107.7,397.323,107.7,397.323z"/>
					</g>
				</g>
			</g>
		</g>
	</g>
	<g>
		<g>
			<g>
				<g>
					<path style="fill:#FFFFFF;" d="M454.397,162.089c0.8-5.812-7.402-10.593-13.566-11.09c-2.939-0.237-5.992,0.212-8.777-0.758
						c-6.033-2.103-8.443-9.897-14.329-12.38c-4.401-1.856-9.468-0.204-13.734,1.943c-4.267,2.147-8.483,4.85-13.25,5.155
						c-4.146,0.265-8.649-1.272-12.276,0.753c-2.703,1.509-4.119,4.624-6.611,6.462c-2.437,1.798-5.617,2.179-8.641,2.343
						c-3.024,0.165-6.155,0.195-8.909,1.456c-2.754,1.261-5.032,4.173-4.461,7.147L454.397,162.089z"/>
				</g>
				<g>
					<g>
						<path style="fill:#263238;" d="M454.397,162.089c0,0-0.166,0.016-0.51,0.027c-0.37,0.009-0.881,0.021-1.538,0.037
							c-1.388,0.024-3.393,0.058-5.968,0.103c-5.236,0.073-12.787,0.178-22.156,0.308c-18.851,0.217-45.014,0.518-74.378,0.856
							l-0.248,0.003l-0.048-0.245c-0.335-1.701,0.273-3.508,1.349-4.882c1.073-1.391,2.62-2.437,4.303-3.003
							c3.886-1.323,7.923-0.763,11.652-1.456c1.863-0.325,3.677-0.961,5.108-2.123c1.444-1.154,2.513-2.721,3.792-4.113
							c0.641-0.694,1.333-1.365,2.145-1.882c0.812-0.514,1.711-0.883,2.634-1.087c1.858-0.399,3.719-0.266,5.507-0.132
							c1.79,0.138,3.554,0.318,5.267,0.126c1.715-0.177,3.373-0.667,4.946-1.299c3.16-1.265,6.006-3.048,8.986-4.407
							c2.966-1.343,6.125-2.299,9.256-2.069c1.551,0.128,3.065,0.557,4.373,1.31c1.312,0.745,2.421,1.729,3.411,2.755
							c1.979,2.064,3.539,4.307,5.364,6.119c1.785,1.838,3.956,3.147,6.249,3.464c2.282,0.36,4.5,0.161,6.57,0.31
							c2.084,0.13,3.965,0.678,5.612,1.333c1.649,0.665,3.068,1.477,4.247,2.34c1.174,0.873,2.082,1.822,2.746,2.73
							c0.678,0.906,1.021,1.818,1.227,2.556c0.161,0.751,0.215,1.341,0.156,1.744C454.42,161.906,454.397,162.089,454.397,162.089
							s-0.006-0.217-0.003-0.602c0.032-0.377-0.037-0.959-0.215-1.692c-0.383-1.462-1.645-3.438-3.994-5.128
							c-1.172-0.837-2.582-1.622-4.214-2.262c-1.631-0.63-3.488-1.153-5.528-1.264c-2.04-0.133-4.258,0.085-6.61-0.268
							c-2.374-0.309-4.667-1.677-6.487-3.54c-1.869-1.84-3.445-4.081-5.398-6.098c-0.976-1.004-2.057-1.951-3.314-2.658
							c-1.253-0.714-2.69-1.115-4.176-1.234c-2.998-0.212-6.081,0.719-8.999,2.053c-2.931,1.345-5.783,3.143-8.999,4.44
							c-1.603,0.648-3.31,1.159-5.092,1.347c-1.788,0.203-3.587,0.018-5.371-0.115c-1.78-0.133-3.593-0.251-5.335,0.128
							c-0.867,0.193-1.694,0.536-2.444,1.011c-0.751,0.479-1.407,1.114-2.029,1.788c-1.244,1.35-2.321,2.945-3.854,4.179
							c-1.532,1.246-3.456,1.912-5.373,2.248c-3.85,0.703-7.863,0.163-11.56,1.436c-1.6,0.539-3.023,1.509-4.027,2.804
							c-0.999,1.278-1.531,2.904-1.236,4.403l-0.296-0.242c29.286-0.241,55.38-0.456,74.181-0.61
							c9.397-0.055,16.969-0.099,22.221-0.13c2.602-0.007,4.629-0.012,6.031-0.016c0.673,0.003,1.196,0.005,1.575,0.006
							C454.205,162.076,454.397,162.089,454.397,162.089z"/>
					</g>
				</g>
			</g>
		</g>
	</g>
</g>
</svg>
